<?xml version="1.0" encoding="UTF-8" standalone="no"?><!-- Generator: Gravit.io --><svg xmlns="http://www.w3.org/2000/svg" xmlns:xlink="http://www.w3.org/1999/xlink" style="isolation:isolate" viewBox="0 0 200 200" width="200pt" height="200pt"><defs><clipPath id="_clipPath_BGXKvTdrR59huydm9qZHC8R0B1OXr5Ny"><rect width="200" height="200"/></clipPath></defs><g clip-path="url(#_clipPath_BGXKvTdrR59huydm9qZHC8R0B1OXr5Ny)"><g><path d=" M 111.605 157.047 L 101.936 155.345 L 101.212 140.877 C 100.257 121.793 97.63 119.592 81.639 124.477 C 61.757 130.55 52.381 124.156 52.381 104.524 C 52.381 94.228 53.122 92.361 57.215 92.361 C 61.073 92.361 62.05 94.228 62.05 101.599 C 62.05 119.204 71.717 122.069 91.765 110.408 C 102.621 104.094 106.607 103.341 125.959 103.946 C 153.686 104.812 171.535 98.717 176.981 86.52 C 178.984 82.035 182.227 78.365 184.187 78.365 C 189.886 78.365 188.397 82.517 178.439 94.4 C 170.985 103.294 165.798 106.494 152.452 110.432 C 143.282 113.137 134.419 115.807 132.757 116.365 C 130.804 117.021 129.735 122.92 129.735 133.047 C 129.735 148.062 126.659 159.988 123.002 159.147 C 122.052 158.928 116.923 157.984 111.605 157.047 L 111.605 157.047 Z  M 107.145 94.242 C 101.348 86.824 102.231 78.304 109.357 72.897 C 115.064 68.567 116.049 68.546 121.444 72.64 C 128.462 77.965 129.135 88.192 122.897 94.729 C 117.151 100.75 112.109 100.595 107.145 94.242 L 107.145 94.242 Z  M 27.638 87.347 C 26.159 85.634 36.957 52.773 40.346 48.674 C 41.505 47.272 48.447 52.123 56.368 59.871 C 72.151 75.31 75.735 78.689 82.597 84.598 C 86.97 88.363 84.64 88.769 58.222 88.85 C 42.157 88.903 28.394 88.222 27.638 87.347 Z " fill="rgb(255,255,255)"/><line x1="31.5" y1="56.811" x2="22.5" y2="40.811" vector-effect="non-scaling-stroke" stroke-width="2" stroke="rgb(255,255,255)" stroke-linejoin="miter" stroke-linecap="square" stroke-miterlimit="3"/><line x1="27.5" y1="63.811" x2="12.5" y2="59.871" vector-effect="non-scaling-stroke" stroke-width="2" stroke="rgb(255,255,255)" stroke-linejoin="miter" stroke-linecap="square" stroke-miterlimit="3"/><line x1="27" y1="70.811" x2="12.5" y2="74.811" vector-effect="non-scaling-stroke" stroke-width="2" stroke="rgb(255,255,255)" stroke-linejoin="miter" stroke-linecap="square" stroke-miterlimit="3"/></g></g></svg>