<?xml version="1.0" encoding="UTF-8" standalone="no"?>
<!-- Created with Inkscape (http://www.inkscape.org/) -->

<svg
   xmlns:dc="http://purl.org/dc/elements/1.1/"
   xmlns:cc="http://creativecommons.org/ns#"
   xmlns:rdf="http://www.w3.org/1999/02/22-rdf-syntax-ns#"
   xmlns:svg="http://www.w3.org/2000/svg"
   xmlns="http://www.w3.org/2000/svg"
   xmlns:sodipodi="http://sodipodi.sourceforge.net/DTD/sodipodi-0.dtd"
   xmlns:inkscape="http://www.inkscape.org/namespaces/inkscape"
   width="40mm"
   height="45mm"
   viewBox="0 0 40 45"
   version="1.1"
   id="svg50"
   inkscape:version="0.92.4 5da689c313, 2019-01-14"
   sodipodi:docname="india 2.svg">
  <defs
     id="defs44" />
  <sodipodi:namedview
     id="base"
     pagecolor="#ffffff"
     bordercolor="#666666"
     borderopacity="1.0"
     inkscape:pageopacity="0.0"
     inkscape:pageshadow="2"
     inkscape:zoom="4.8624537"
     inkscape:cx="75.590551"
     inkscape:cy="85.03937"
     inkscape:document-units="mm"
     inkscape:current-layer="layer1"
     showgrid="false"
     fit-margin-top="0"
     fit-margin-left="0"
     fit-margin-right="0"
     fit-margin-bottom="0"
     inkscape:window-width="1920"
     inkscape:window-height="1041"
     inkscape:window-x="0"
     inkscape:window-y="0"
     inkscape:window-maximized="1" />
  <metadata
     id="metadata47">
    <rdf:RDF>
      <cc:Work
         rdf:about="">
        <dc:format>image/svg+xml</dc:format>
        <dc:type
           rdf:resource="http://purl.org/dc/dcmitype/StillImage" />
        <dc:title></dc:title>
      </cc:Work>
    </rdf:RDF>
  </metadata>
  <g
     inkscape:label="Layer 1"
     inkscape:groupmode="layer"
     id="layer1"
     transform="translate(-85.844424,-125.2598)">
    <path
       style="fill:#008000;stroke-width:0.07616659"
       d="m 119.62742,168.56278 c -0.17538,-0.44375 -0.18974,-0.62838 -0.0489,-0.62838 0.11422,0 0.11787,0.0172 0.0273,0.12851 -0.0917,0.11278 -0.0879,0.12228 0.0312,0.0776 0.17912,-0.0672 0.32036,0.26759 0.20435,0.48435 -0.1022,0.19096 -0.11547,0.1871 -0.21397,-0.0621 z m -0.54503,-1.30938 c 0,-0.11888 0.13608,-0.16461 0.18476,-0.0621 0.025,0.0526 0.0311,0.0186 0.0136,-0.0756 -0.0175,-0.0942 -5.7e-4,-0.19049 0.0372,-0.21395 0.038,-0.0235 0.0733,-0.006 0.0785,0.038 0.005,0.0444 0.0149,0.12351 0.0216,0.17587 0.007,0.0524 -0.0233,0.12039 -0.0667,0.15117 -0.11157,0.0793 -0.26913,0.0715 -0.26913,-0.0134 z m -20.668556,-0.56839 c -0.44625,-0.44625 -0.76095,-1.02739 -0.84954,-1.56877 -0.0674,-0.41189 -0.67314,-2.06329 -0.89402,-2.43733 -0.0866,-0.14662 -0.23562,-0.35227 -0.33117,-0.457 -0.25649,-0.2811 -0.62006,-1.10653 -0.75496,-1.71399 -0.18487,-0.8325 -0.41248,-1.48599 -0.67642,-1.94201 -0.25773,-0.44531 -0.90807,-1.76346 -0.99583,-2.01841 -0.0288,-0.0838 -0.10228,-0.46081 -0.1632,-0.83783 -0.0609,-0.37703 -0.18299,-0.94256 -0.27128,-1.25675 -0.0883,-0.31419 -0.18621,-0.7769 -0.21759,-1.02825 -0.0314,-0.25135 -0.11215,-0.74806 -0.17949,-1.10381 -0.10988,-0.58047 -0.11075,-0.69242 -0.009,-1.09152 0.14798,-0.57762 0.14405,-0.68411 -0.0384,-1.04175 -0.0838,-0.16423 -0.15494,-0.42849 -0.15813,-0.58725 -0.003,-0.15877 -0.052,-0.40863 -0.10845,-0.55525 l -0.10266,-0.26658 -0.006,0.34411 c -0.008,0.48409 -0.28105,0.85715 -0.82956,1.13403 -0.65833,0.33233 -1.03304,0.41538 -1.37098,0.30387 -0.40349,-0.13314 -2.14675,-1.88856 -2.14675,-2.16173 0,-0.22908 0.17987,-0.32671 0.34676,-0.18821 0.0953,0.0791 0.21312,0.0642 0.65156,-0.0822 0.57318,-0.19142 0.85358,-0.45428 0.4846,-0.45428 -0.10896,0 -0.26832,0.0376 -0.35414,0.0835 -0.40503,0.21677 -1.39102,-0.23333 -1.6846,-0.76901 -0.0804,-0.14662 -0.19382,-0.29399 -0.25214,-0.32749 -0.0583,-0.0335 -0.10604,-0.1407 -0.10604,-0.23821 0,-0.24213 0.17166,-0.37424 0.54395,-0.41864 0.0269,-0.003 0.0716,-0.0963 0.0994,-0.20696 l 0.0505,-0.20115 0.80207,0.0409 c 0.60212,0.0307 0.85269,0.0145 1.00507,-0.065 0.25284,-0.13192 0.59782,-0.13815 0.64384,-0.0116 0.0261,0.0716 0.0701,0.0744 0.17772,0.0114 0.23338,-0.13676 0.21794,-0.51378 -0.0424,-1.03468 -0.12841,-0.25697 -0.23347,-0.51218 -0.23347,-0.56713 0,-0.055 -0.11139,-0.1281 -0.24754,-0.16256 -0.34319,-0.0869 -0.52869,-0.45379 -0.42297,-0.83668 0.0645,-0.23358 0.0552,-0.29204 -0.06,-0.37628 -0.075,-0.0549 -0.18246,-0.0997 -0.23877,-0.0997 -0.0563,0 -0.18685,-0.0553 -0.29011,-0.12301 -0.31664,-0.20747 -0.26061,-0.60046 0.15502,-1.08738 0.18851,-0.22085 0.34275,-0.42834 0.34275,-0.4611 0,-0.13103 0.41242,-0.46117 0.5761,-0.46117 0.0966,0 0.24315,0.0873 0.32835,0.19558 0.15381,0.19554 0.15389,0.19555 0.55773,0.0789 0.22215,-0.0642 0.48959,-0.13529 0.59432,-0.15804 0.20312,-0.0441 0.43641,-0.33749 0.67808,-0.85266 0.10237,-0.21823 0.25754,-0.381 0.49699,-0.52133 0.41092,-0.24081 0.6079,-0.49721 0.83586,-1.08802 0.13659,-0.354 0.22295,-0.46346 0.46608,-0.59075 0.22071,-0.11555 0.31108,-0.21818 0.34707,-0.39413 0.0268,-0.13084 0.21104,-0.42797 0.40951,-0.66028 0.35315,-0.41337 0.36119,-0.43425 0.37701,-0.97953 0.009,-0.30643 0.0443,-0.60262 0.0786,-0.6582 0.0343,-0.0556 0.24657,-0.18247 0.47161,-0.282 0.22505,-0.0995 0.40917,-0.21639 0.40917,-0.25971 0,-0.0864 -0.22279,-0.19146 -0.56025,-0.26411 -0.12657,-0.0273 -0.23376,-0.10905 -0.25642,-0.19568 -0.0215,-0.0822 -0.10412,-0.14887 -0.18455,-0.14887 -0.22244,0 -1.0393,-0.43715 -1.12858,-0.60397 -0.0435,-0.0812 -0.0808,-0.31274 -0.083,-0.51448 -0.002,-0.20174 -0.0497,-0.62259 -0.10563,-0.93523 -0.0559,-0.31263 -0.0824,-0.62111 -0.0588,-0.68549 0.0534,-0.1458 0.38454,-0.47065 0.58668,-0.57544 0.22483,-0.11656 0.22989,-0.32703 0.012,-0.49844 -0.10534,-0.0829 -0.20239,-0.22192 -0.21566,-0.30903 -0.0162,-0.10636 -0.12171,-0.19177 -0.3212,-0.26002 -0.26601,-0.091 -0.38178,-0.18445 -0.44433,-0.35861 -0.0112,-0.031 -0.13573,-0.0699 -0.27684,-0.0863 -0.26527,-0.0308 -0.38767,-0.1455 -0.38969,-0.3651 -5.7e-4,-0.0699 0.19385,-0.35262 0.43219,-0.62838 0.39372,-0.45552 0.46012,-0.50137 0.72597,-0.50137 0.18985,0 0.30802,-0.0401 0.33646,-0.11425 0.0244,-0.0634 0.13751,-0.11425 0.25451,-0.11425 0.11587,0 0.37063,-0.0708 0.56614,-0.15724 0.30129,-0.13328 0.3954,-0.14406 0.61752,-0.0708 0.14414,0.0476 0.29731,0.0647 0.3404,0.0381 0.14477,-0.0895 0.36272,0.0402 0.56975,0.33892 0.11588,0.16721 0.4722,0.46986 0.81679,0.69375 0.4316,0.28042 0.64157,0.46973 0.71444,0.64412 0.0799,0.19135 0.16311,0.25822 0.36921,0.29688 0.1502,0.0282 0.33174,0.13346 0.41697,0.24182 0.12912,0.16414 0.19031,0.18453 0.42288,0.1409 0.14956,-0.0281 0.34874,-0.11084 0.44263,-0.18397 0.296776,-0.23115 0.650256,-0.38301 0.891546,-0.38301 0.12833,0 0.29745,-0.0401 0.37584,-0.089 0.11268,-0.0704 0.19862,-0.0624 0.41035,0.0381 0.14731,0.0699 0.35335,0.12709 0.45789,0.12709 0.28235,0 0.68968,0.48819 0.62744,0.752 -0.18364,0.77853 -0.28159,0.99324 -0.57333,1.2568 -0.18866,0.17045 -0.30527,0.34305 -0.30527,0.45186 0,0.25321 -0.1562,0.42062 -0.41796,0.44797 -0.22066,0.0231 -0.22786,0.0365 -0.23807,0.4427 -0.0107,0.42718 0.11177,0.6855 0.32508,0.6855 0.0563,0 0.10245,0.0646 0.10245,0.14363 0,0.079 0.0512,0.2418 0.11378,0.36179 0.1853,0.3553 0.14323,0.45114 -0.29989,0.68315 l -0.41461,0.21707 -0.1806,-0.16965 c -0.25469,-0.23928 -0.36511,-0.22042 -0.28779,0.0492 0.0345,0.12036 0.11539,0.3003 0.17971,0.39987 0.0643,0.0996 0.13077,0.35242 0.14767,0.56188 0.029,0.35966 0.0428,0.38104 0.24783,0.38456 0.11941,0.002 0.23026,0.0432 0.24633,0.0914 0.0789,0.23663 0.3641,0.48112 0.65153,0.55848 0.2007,0.054 0.4188,0.19319 0.5862,0.37406 0.14662,0.15841 0.38655,0.338 0.53317,0.39909 0.54276,0.22614 0.55053,0.44263 0.0341,0.95034 -0.1712,0.16831 -0.27442,0.36468 -0.33144,0.63054 -0.0455,0.21235 -0.13589,0.46713 -0.20078,0.56616 -0.11141,0.17003 -0.10661,0.18901 0.0861,0.34059 0.11224,0.0883 0.26965,0.16053 0.3498,0.16053 0.14906,0 0.66994,0.32421 1.2809,0.79726 0.18851,0.14596 0.43046,0.26621 0.53765,0.26723 0.1072,0.001 0.26144,0.0522 0.34275,0.11367 0.0813,0.0615 0.19742,0.11292 0.25801,0.11425 0.0606,10e-4 0.24241,0.0941 0.40405,0.20609 0.27278,0.18904 0.34898,0.20328 1.06081,0.19824 0.85926,-0.006 1.24611,0.10513 1.35413,0.38926 0.10188,0.26797 0.66958,0.56979 0.98283,0.52252 0.16912,-0.0255 0.2778,-0.003 0.32028,0.0654 0.0699,0.11315 0.83984,0.30333 1.3279,0.32801 0.16757,0.008 0.37322,0.0498 0.457,0.0918 0.0838,0.042 0.35165,0.0625 0.59527,0.0454 0.37584,-0.0263 0.45533,-0.0582 0.52479,-0.21068 0.061,-0.13384 0.0558,-0.24257 -0.0204,-0.42641 -0.11659,-0.28148 -0.11372,-0.4598 0.0172,-1.06923 0.0883,-0.41136 0.10938,-0.43945 0.41719,-0.557 0.49838,-0.19033 0.6341,-0.0818 0.64652,0.51685 0.0174,0.8396 0.0312,0.9081 0.21176,1.05431 0.0969,0.0785 0.27293,0.14263 0.39123,0.14263 0.11831,0 0.30376,0.0337 0.41211,0.0749 0.14588,0.0555 0.27729,0.0428 0.50642,-0.0489 0.2394,-0.0958 0.36648,-0.10629 0.56159,-0.0464 0.29258,0.0898 1.27628,0.0459 1.58211,-0.0706 0.17878,-0.0681 0.20946,-0.12306 0.20946,-0.37522 0,-0.25749 -0.0225,-0.29542 -0.17519,-0.29542 -0.24512,0 -0.35798,-0.13954 -0.35798,-0.44263 0,-0.25153 0.008,-0.2584 0.24754,-0.21513 0.13615,0.0246 0.41864,0.0194 0.62776,-0.0114 0.31407,-0.0463 0.39796,-0.0931 0.48219,-0.26888 0.0561,-0.11703 0.21918,-0.26866 0.36241,-0.33697 0.14324,-0.0683 0.26043,-0.15367 0.26043,-0.18971 0,-0.17139 0.3872,-0.43943 0.63478,-0.43943 0.21693,0 0.30835,-0.0579 0.5427,-0.34393 0.35577,-0.43417 0.66717,-0.60728 0.88382,-0.49133 0.0857,0.0459 0.30219,0.12743 0.48116,0.18129 0.31328,0.0943 0.33439,0.0899 0.56655,-0.11753 0.32752,-0.29264 0.56741,-0.34279 0.8065,-0.16862 0.10599,0.0772 0.19378,0.18322 0.19509,0.23558 10e-4,0.0524 0.0709,0.16376 0.15473,0.24754 0.16597,0.16597 0.19449,0.38825 0.0778,0.60632 -0.0661,0.12356 -0.0188,0.1544 0.41899,0.2729 0.52304,0.14158 0.59769,0.1953 0.66771,0.4805 0.0348,0.14154 -0.0224,0.2404 -0.27209,0.471 l -0.31608,0.29186 0.13076,0.27421 c 0.0719,0.15082 0.13076,0.30732 0.13076,0.34779 0,0.1203 -0.19473,0.084 -0.39517,-0.0737 -0.16072,-0.12642 -0.23494,-0.1366 -0.5244,-0.0719 -0.18544,0.0414 -0.44,0.16972 -0.56567,0.28504 -0.32058,0.29418 -0.77528,0.61963 -0.86571,0.61963 -0.1058,0 -0.16429,0.21834 -0.15386,0.57436 0.0114,0.388 -0.11314,0.69923 -0.39785,0.99447 -0.20145,0.20889 -0.21747,0.25793 -0.13989,0.42819 0.0772,0.16938 0.0391,0.29319 -0.32004,1.03987 -0.40562,0.84336 -0.40879,0.84733 -0.63615,0.79557 -0.5848,-0.13315 -0.60431,-0.11845 -0.65921,0.49642 -0.0378,0.42328 -0.0901,0.60142 -0.21585,0.73529 -0.14356,0.15281 -0.15949,0.2317 -0.11794,0.58388 0.0419,0.35472 0.0255,0.43339 -0.12689,0.61041 -0.14284,0.16593 -0.22051,0.19577 -0.42323,0.16262 -0.17524,-0.0286 -0.25759,-0.0884 -0.27991,-0.20321 -0.0174,-0.0894 -0.1062,-0.50537 -0.19736,-0.92429 -0.0912,-0.41891 -0.18008,-0.83878 -0.19759,-0.93304 -0.0175,-0.0943 -0.066,-0.17137 -0.10767,-0.17137 -0.0981,0 -0.37761,0.45782 -0.37798,0.61905 -5.7e-4,0.22759 -0.19765,0.32149 -0.44503,0.212 -0.42889,-0.18985 -0.60395,-1.17187 -0.2583,-1.44897 0.20247,-0.16232 0.46156,-0.29608 0.57351,-0.29608 0.29614,0 0.78792,-0.93965 0.56568,-1.08083 -0.0937,-0.0596 -0.4954,-0.0809 -1.76906,-0.0942 -0.39667,-0.004 -0.80585,-0.0534 -0.97112,-0.11687 -0.25832,-0.0993 -0.28563,-0.13651 -0.28563,-0.3896 0,-0.15391 -0.0209,-0.38419 -0.0464,-0.51173 -0.0423,-0.21177 -0.0675,-0.22846 -0.28983,-0.19238 -0.18433,0.0299 -0.29794,-0.006 -0.46775,-0.14637 -0.12336,-0.10224 -0.29284,-0.20458 -0.37662,-0.22742 -0.0838,-0.0229 -0.20575,-0.0637 -0.27103,-0.0908 -0.13119,-0.0545 -0.38054,0.13158 -0.51387,0.38337 -0.0748,0.14128 -0.0489,0.19015 0.21208,0.39987 0.16352,0.13141 0.3311,0.23892 0.37241,0.23892 0.12476,0 0.38531,0.38274 0.34034,0.49995 -0.0231,0.0602 -0.1335,0.10938 -0.24537,0.10938 -0.12296,0 -0.28191,0.0828 -0.40196,0.20946 -0.10922,0.1152 -0.25568,0.25527 -0.32548,0.31127 -0.16913,0.13568 -0.0423,0.29152 0.39492,0.48538 0.29232,0.1296 0.32371,0.16951 0.32371,0.41155 0,0.14741 -0.0346,0.33266 -0.0769,0.41165 -0.0578,0.108 -0.0369,0.22024 0.0841,0.45238 0.0885,0.1698 0.1922,0.32807 0.23044,0.3517 0.0382,0.0236 0.0513,0.0724 0.0291,0.10834 -0.0222,0.036 -0.004,0.35064 0.0401,0.69928 0.0797,0.62742 0.0959,1.36094 0.0316,1.42529 -0.0848,0.0848 -1.04031,0.0541 -1.22006,-0.0391 -0.16563,-0.0859 -0.22969,-0.0855 -0.40039,0.003 -0.11177,0.0577 -0.34897,0.14421 -0.52712,0.19213 -0.45007,0.12108 -0.5857,0.34165 -0.45039,0.73247 0.0971,0.28056 0.0912,0.31364 -0.11392,0.63711 -0.33901,0.53457 -0.68012,0.80878 -1.2363,0.99387 -0.64468,0.21453 -1.14644,0.61231 -1.67651,1.32908 -0.25837,0.34936 -0.548,0.64274 -0.7533,0.76306 -0.18344,0.1075 -0.47859,0.35023 -0.6559,0.5394 -0.17729,0.18916 -0.46566,0.41645 -0.64081,0.50508 -0.62226,0.31488 -0.73737,0.43102 -0.73737,0.74397 0,0.17949 -0.0512,0.33399 -0.13608,0.41082 -0.19206,0.17381 -0.69945,0.37464 -0.82489,0.32651 -0.1793,-0.0688 -0.31995,0.0319 -0.51908,0.37171 -0.21075,0.35962 -0.38837,0.46922 -0.54703,0.33755 -0.35506,-0.29467 -0.85217,0.41418 -0.75284,1.07352 0.0284,0.18851 0.0643,0.5484 0.0798,0.79975 0.0155,0.25135 0.0501,0.5941 0.077,0.76167 0.0269,0.16756 0.0474,0.52348 0.0456,0.79093 -0.003,0.41332 -0.0501,0.57999 -0.31571,1.11117 -0.33737,0.67475 -0.33359,0.63371 -0.18714,2.0324 0.0451,0.431 -0.0854,0.59741 -0.46863,0.59741 -0.21088,0 -0.27746,0.038 -0.33584,0.19151 -0.0401,0.10534 -0.14789,0.29306 -0.23964,0.41717 -0.13958,0.18878 -0.15287,0.25627 -0.0814,0.41315 0.08,0.17548 0.0674,0.19326 -0.19643,0.27733 -0.64997,0.20714 -0.74367,0.28289 -0.84657,0.68435 -0.0829,0.32339 -0.145326,0.40793 -0.420416,0.56914 -0.5107,0.29929 -0.73209,0.25873 -1.21304,-0.22221 z m 20.408296,0.19328 c -0.0328,-0.0531 -0.0391,-0.11709 -0.0139,-0.14223 0.0682,-0.0682 0.14249,0.0321 0.10568,0.14254 -0.0258,0.0774 -0.0437,0.0773 -0.0917,-2.9e-4 z m -0.5014,-1.22888 c 0,-0.0419 0.0343,-0.0762 0.0762,-0.0762 0.0419,0 0.0762,0.0343 0.0762,0.0762 0,0.0419 -0.0343,0.0762 -0.0762,0.0762 -0.0419,0 -0.0762,-0.0343 -0.0762,-0.0762 z m -0.40685,-1.84308 c -0.0421,-0.16089 0.0581,-0.36576 0.17879,-0.36576 0.0955,0 0.1371,0.27387 0.062,0.4081 -0.0966,0.17265 -0.18879,0.15644 -0.24077,-0.0423 z m 0.27658,-1.05126 c 0.0219,-0.0838 0.0161,-0.15233 -0.013,-0.15233 -0.0865,0 -0.0872,-0.32487 -10e-4,-0.59029 0.0441,-0.13615 0.10549,-0.24754 0.13644,-0.24754 0.031,0 0.0314,-0.21118 8.7e-4,-0.46929 -0.0424,-0.3598 -0.0303,-0.49435 0.0521,-0.57669 0.0591,-0.0591 0.1074,-0.18783 0.1074,-0.28615 0,-0.25778 0.0766,-0.4197 0.19857,-0.4197 0.17171,0 0.16065,0.60778 -0.0129,0.70679 -0.0795,0.0454 -0.0857,0.10759 -0.0264,0.26361 0.0427,0.11233 0.0532,0.29126 0.0233,0.39763 -0.0299,0.10636 -0.0577,0.22766 -0.0617,0.26955 -0.004,0.0419 -0.0516,0.15399 -0.1057,0.24912 -0.0541,0.0951 -0.0822,0.19908 -0.0625,0.23102 0.06,0.097 -0.11175,0.77661 -0.19623,0.77661 -0.0434,0 -0.061,-0.0685 -0.0391,-0.15234 z m 0.43493,-0.72902 c 0,-0.0658 0.0514,-0.1711 0.11425,-0.23394 0.12349,-0.12348 0.1377,-0.0844 0.0662,0.18226 -0.0524,0.19533 -0.1805,0.23203 -0.1805,0.0517 z m 1.06633,-0.33731 c 0,-0.0419 0.0343,-0.0762 0.0762,-0.0762 0.0419,0 0.0762,0.0343 0.0762,0.0762 0,0.0419 -0.0343,0.0762 -0.0762,0.0762 -0.0419,0 -0.0762,-0.0343 -0.0762,-0.0762 z"
       id="path265"
       inkscape:connector-curvature="0" />
  </g>
</svg>
