<?xml version="1.0" encoding="UTF-8" standalone="no"?><!-- Generator: Gravit.io --><svg xmlns="http://www.w3.org/2000/svg" xmlns:xlink="http://www.w3.org/1999/xlink" style="isolation:isolate" viewBox="0 0 100 80" width="100pt" height="80pt"><g><circle vector-effect="non-scaling-stroke" cx="50" cy="40" r="39" fill="none" stroke-width="2" stroke="rgb(255,7,58)" stroke-linejoin="miter" stroke-linecap="square" stroke-miterlimit="3"/><g><path d=" M 64.325 48.305 C 64.553 48.125 64.782 47.978 64.978 47.847 C 69.601 44.907 68.898 51.13 73.178 49.693 C 71.969 49.17 71.904 49.497 70.875 48.566 C 70.319 48.076 69.878 47.423 69.405 46.704 C 66.873 42.849 65.697 41.82 60.927 44.385 C 56.811 46.606 48.53 47.374 43.858 47.39 C 41.735 47.406 39.563 47.308 37.456 47.145 C 35.577 46.998 33.029 46.573 31.412 46.573 C 37.766 48.909 50.784 48.468 58.102 46.247 C 60.797 45.446 63.116 44.221 66.252 45.054 C 65.125 46.41 60.617 47.798 58.281 48.37 C 50.996 50.15 40.085 50.069 32.784 48.207 C 32.539 48.158 29.174 46.933 30.677 48.043 C 34.189 50.64 51.682 52.568 62.332 49.203 C 62.544 49.121 62.773 49.056 63.002 48.974 C 63.671 48.746 63.769 48.713 64.325 48.305 L 64.325 48.305 Z " fill-rule="evenodd" fill="rgb(255,7,58)"/><path d=" M 44.207 29.116 C 43.897 28.561 44.187 28.372 44.807 28.323 C 46.212 28.208 49.854 28.339 51.178 28.486 C 51.439 29.956 49.201 29.727 48.499 30.217 C 49.25 30.577 50.165 30.364 50.802 30.887 C 50.508 31.818 48.907 32.096 47.649 32.096 C 46.13 32.112 45.167 31.851 44.203 31.197 C 44.236 30.136 44.497 30.397 45.15 29.956 C 45.869 29.633 45.352 30.442 44.207 29.116 L 44.207 29.116 Z  M 45.983 32.994 C 47.6 33.157 50.916 32.929 51.945 31.736 C 52.942 30.56 51.292 30.315 50.606 30.005 C 51.374 29.678 52.403 29.27 52.256 28.29 C 52.092 27.13 50.573 27.441 49.577 27.588 C 47.323 27.882 45.395 27.637 43.272 27.13 C 45.466 31.671 40.225 32.39 45.983 32.994 Z " fill-rule="evenodd" fill="rgb(255,7,58)"/><path d=" M 25.058 42.31 L 25.058 43.47 C 25.532 44.254 25.826 44.793 26.79 45.218 C 27.655 45.593 28.75 45.724 29.795 45.675 C 29.24 45.185 28.505 45.25 27.819 44.597 C 27.067 43.878 27.361 42.931 27.966 42.392 C 31.298 39.435 39.677 39.288 43.989 39.615 L 44.022 31.857 L 43.907 26.858 C 43.809 23.477 44.25 20.161 46.554 18.936 C 47.746 18.299 49.461 18.103 50.915 18.593 C 55.096 20.014 54.034 26.793 53.936 31.318 L 53.855 41.837 C 52.434 42.735 49.428 43.176 47.452 43.258 C 44.479 43.372 42.976 42.866 40.477 42.261 C 41.343 44.091 49.886 45.593 54.116 43.241 C 56.338 42.016 54.851 41.673 55.488 38.913 C 59.065 38.39 64.504 39.501 66.889 41.199 C 68.702 42.506 72.9 49.464 74.844 47.782 L 74.942 47.717 C 72.753 46.933 71.871 46.034 70.858 43.878 C 68.947 39.827 66.661 38.292 62.022 37.361 C 60.748 37.1 56.093 36.675 55.423 36.299 C 55.145 31.089 56.73 21.664 53.675 17.63 C 51.846 15.229 50.686 15.702 49.347 15 L 47.125 15 C 46.178 15.425 44.054 15.49 42.241 17.254 C 40.951 18.512 40.526 20.047 40.347 22.481 C 40.004 27.12 40.281 31.873 40.232 36.561 C 36.231 37.573 29.583 38.292 26.169 40.873 C 25.646 41.265 25.483 41.722 25.058 42.31 L 25.058 42.31 Z " fill-rule="evenodd" fill="rgb(255,7,58)"/><path d=" M 55.897 40.04 C 56.534 40.775 59.964 40.154 62.724 40.677 C 63.279 40.791 64.308 41.183 64.651 41.216 C 62.561 40.595 64.864 40.268 58.134 39.582 C 57.203 39.501 56.305 39.109 55.897 40.04 L 55.897 40.04 Z " fill-rule="evenodd" fill="rgb(255,7,58)"/><path d=" M 46.817 29.15 C 45.559 29.477 45.837 31.208 47.405 30.865 C 48.663 30.604 48.418 28.758 46.817 29.15 Z " fill-rule="evenodd" fill="rgb(255,7,58)"/></g><path d=" M 43.92 75.55 L 42.022 75.17 L 42.055 75.005 L 42.055 75.005 Q 42.479 75.09 42.581 74.947 L 42.581 74.947 L 43.37 71.001 L 43.37 71.001 Q 43.33 70.83 42.907 70.746 L 42.907 70.746 L 42.94 70.581 L 44.744 70.942 L 44.744 70.942 Q 45.787 71.15 46.297 71.909 L 46.297 71.909 L 46.297 71.909 Q 46.806 72.668 46.602 73.687 L 46.602 73.687 L 46.602 73.687 Q 46.398 74.707 45.649 75.226 L 45.649 75.226 L 45.649 75.226 Q 44.901 75.746 43.92 75.55 L 43.92 75.55 L 43.92 75.55 Z  M 44.699 71.169 L 44.11 71.052 L 43.291 75.146 L 43.974 75.283 L 43.974 75.283 Q 44.225 75.333 44.487 75.267 L 44.487 75.267 L 44.487 75.267 Q 44.749 75.201 45.014 75.018 L 45.014 75.018 L 45.014 75.018 Q 45.279 74.834 45.494 74.453 L 45.494 74.453 L 45.494 74.453 Q 45.709 74.072 45.816 73.538 L 45.816 73.538 L 45.816 73.538 Q 46.02 72.519 45.665 71.905 L 45.665 71.905 L 45.665 71.905 Q 45.31 71.292 44.699 71.169 L 44.699 71.169 L 44.699 71.169 Z  M 50.589 76.022 L 48.845 76.051 L 48.842 75.883 L 48.842 75.883 Q 49.274 75.876 49.343 75.715 L 49.343 75.715 L 49.276 71.691 L 49.276 71.691 Q 49.202 71.533 48.77 71.54 L 48.77 71.54 L 48.767 71.372 L 50.511 71.343 L 50.514 71.511 L 50.514 71.511 Q 50.082 71.518 50.012 71.679 L 50.012 71.679 L 50.042 73.463 L 52.09 73.429 L 52.06 71.645 L 52.06 71.645 Q 51.985 71.486 51.553 71.493 L 51.553 71.493 L 51.551 71.325 L 53.294 71.296 L 53.297 71.464 L 53.297 71.464 Q 52.865 71.472 52.796 71.633 L 52.796 71.633 L 52.863 75.656 L 52.863 75.656 Q 52.937 75.815 53.369 75.808 L 53.369 75.808 L 53.372 75.976 L 51.628 76.005 L 51.626 75.837 L 51.626 75.837 Q 52.058 75.83 52.127 75.668 L 52.127 75.668 L 52.094 73.701 L 50.047 73.735 L 50.079 75.703 L 50.079 75.703 Q 50.154 75.861 50.586 75.854 L 50.586 75.854 L 50.589 76.022 L 50.589 76.022 Z  M 60.035 74.682 L 58.317 75.026 L 58.284 74.861 L 58.284 74.861 Q 58.645 74.789 58.72 74.676 L 58.72 74.676 L 58.041 73.563 L 56.535 73.865 L 56.357 75.099 L 56.357 75.099 Q 56.464 75.225 56.872 75.143 L 56.872 75.143 L 56.905 75.308 L 55.618 75.565 L 55.586 75.401 L 55.586 75.401 Q 56.025 75.313 56.047 75.137 L 56.047 75.137 L 56.717 70.573 L 57.093 70.498 L 59.467 74.453 L 59.467 74.453 Q 59.555 74.607 60.002 74.517 L 60.002 74.517 L 60.035 74.682 L 60.035 74.682 Z  M 57.895 73.323 L 56.863 71.629 L 56.577 73.587 L 57.895 73.323 L 57.895 73.323 Z  M 63.778 73.223 L 62.167 73.89 L 62.103 73.735 L 62.103 73.735 Q 62.502 73.57 62.507 73.394 L 62.507 73.394 L 60.968 69.677 L 60.968 69.677 Q 60.84 69.556 60.441 69.722 L 60.441 69.722 L 60.377 69.566 L 62.047 68.875 L 62.047 68.875 Q 62.963 68.495 63.574 68.632 L 63.574 68.632 L 63.574 68.632 Q 64.185 68.768 64.363 69.197 L 64.363 69.197 L 64.363 69.197 Q 64.531 69.604 64.414 70.011 L 64.414 70.011 L 64.414 70.011 Q 64.297 70.419 63.875 70.759 L 63.875 70.759 L 65.586 72.111 L 65.586 72.111 Q 65.725 72.235 66.139 72.064 L 66.139 72.064 L 66.203 72.219 L 65.885 72.351 L 65.885 72.351 Q 65.368 72.565 65.188 72.57 L 65.188 72.57 L 65.188 72.57 Q 65.008 72.575 64.743 72.373 L 64.743 72.373 L 63.193 71.162 L 62.499 71.45 L 63.187 73.113 L 63.187 73.113 Q 63.315 73.233 63.714 73.068 L 63.714 73.068 L 63.778 73.223 L 63.778 73.223 Z  M 62.151 69.126 L 61.626 69.343 L 62.395 71.198 L 63.008 70.944 L 63.008 70.944 Q 63.599 70.7 63.726 70.379 L 63.726 70.379 L 63.726 70.379 Q 63.853 70.058 63.626 69.511 L 63.626 69.511 L 63.626 69.511 Q 63.458 69.104 63.119 68.985 L 63.119 68.985 L 63.119 68.985 Q 62.779 68.866 62.151 69.126 L 62.151 69.126 L 62.151 69.126 Z  M 69.623 70.255 L 69.623 70.255 L 69.623 70.255 Q 69.297 70.472 68.89 70.598 L 68.89 70.598 L 68.89 70.598 Q 68.484 70.725 68.471 70.734 L 68.471 70.734 L 68.471 70.734 Q 68.431 70.76 68.405 70.836 L 68.405 70.836 L 68.405 70.836 Q 68.378 70.911 68.413 70.964 L 68.413 70.964 L 68.26 71.067 L 67.644 70.141 L 67.79 70.044 L 67.79 70.044 Q 68.129 70.394 68.574 70.362 L 68.574 70.362 L 68.574 70.362 Q 69.019 70.33 69.432 70.055 L 69.432 70.055 L 69.432 70.055 Q 69.785 69.82 69.905 69.509 L 69.905 69.509 L 69.905 69.509 Q 70.024 69.199 69.812 68.879 L 69.812 68.879 L 69.812 68.879 Q 69.714 68.733 69.571 68.655 L 69.571 68.655 L 69.571 68.655 Q 69.428 68.577 69.229 68.561 L 69.229 68.561 L 69.229 68.561 Q 69.031 68.544 68.864 68.554 L 68.864 68.554 L 68.864 68.554 Q 68.698 68.564 68.439 68.587 L 68.439 68.587 L 68.439 68.587 Q 68.181 68.61 68.041 68.617 L 68.041 68.617 L 68.041 68.617 Q 67.71 68.626 67.546 68.625 L 67.546 68.625 L 67.546 68.625 Q 67.382 68.624 67.104 68.588 L 67.104 68.588 L 67.104 68.588 Q 66.825 68.552 66.634 68.439 L 66.634 68.439 L 66.634 68.439 Q 66.443 68.326 66.315 68.133 L 66.315 68.133 L 66.315 68.133 Q 66.053 67.74 66.2 67.181 L 66.2 67.181 L 66.2 67.181 Q 66.346 66.622 66.792 66.325 L 66.792 66.325 L 66.792 66.325 Q 66.985 66.196 67.338 66.105 L 67.338 66.105 L 67.338 66.105 Q 67.691 66.014 67.731 65.988 L 67.731 65.988 L 67.731 65.988 Q 67.811 65.934 67.722 65.801 L 67.722 65.801 L 67.875 65.699 L 68.505 66.5 L 68.359 66.598 L 68.359 66.598 Q 68.123 66.332 67.74 66.304 L 67.74 66.304 L 67.74 66.304 Q 67.356 66.276 66.95 66.547 L 66.95 66.547 L 66.95 66.547 Q 66.643 66.751 66.591 67.069 L 66.591 67.069 L 66.591 67.069 Q 66.539 67.388 66.672 67.587 L 66.672 67.587 L 66.672 67.587 Q 66.756 67.714 66.89 67.784 L 66.89 67.784 L 66.89 67.784 Q 67.023 67.854 67.211 67.862 L 67.211 67.862 L 67.211 67.862 Q 67.4 67.871 67.56 67.866 L 67.56 67.866 L 67.56 67.866 Q 67.719 67.86 67.976 67.834 L 67.976 67.834 L 67.976 67.834 Q 68.232 67.807 68.372 67.8 L 68.372 67.8 L 68.372 67.8 Q 68.756 67.785 68.929 67.785 L 68.929 67.785 L 68.929 67.785 Q 69.102 67.785 69.402 67.825 L 69.402 67.825 L 69.402 67.825 Q 69.703 67.865 69.897 67.99 L 69.897 67.99 L 69.897 67.99 Q 70.091 68.116 70.233 68.329 L 70.233 68.329 L 70.233 68.329 Q 70.561 68.821 70.348 69.367 L 70.348 69.367 L 70.348 69.367 Q 70.135 69.913 69.623 70.255 Z  M 74.292 66.63 L 73.038 67.843 L 72.921 67.722 L 72.921 67.722 Q 73.232 67.422 73.172 67.257 L 73.172 67.257 L 70.375 64.364 L 70.375 64.364 Q 70.212 64.299 69.901 64.6 L 69.901 64.6 L 69.784 64.479 L 71.038 63.266 L 71.155 63.387 L 71.155 63.387 Q 70.844 63.688 70.904 63.853 L 70.904 63.853 L 72.144 65.135 L 73.616 63.711 L 72.376 62.429 L 72.376 62.429 Q 72.213 62.364 71.902 62.664 L 71.902 62.664 L 71.785 62.543 L 73.039 61.331 L 73.156 61.452 L 73.156 61.452 Q 72.845 61.752 72.905 61.917 L 72.905 61.917 L 75.702 64.809 L 75.702 64.809 Q 75.865 64.874 76.176 64.574 L 76.176 64.574 L 76.293 64.695 L 75.039 65.907 L 74.922 65.786 L 74.922 65.786 Q 75.233 65.486 75.173 65.321 L 75.173 65.321 L 73.805 63.907 L 72.333 65.33 L 73.701 66.745 L 73.701 66.745 Q 73.864 66.81 74.175 66.51 L 74.175 66.51 L 74.292 66.63 L 74.292 66.63 Z  M 80.437 59.344 L 79.465 60.802 L 79.325 60.709 L 79.325 60.709 Q 79.529 60.403 79.503 60.27 L 79.503 60.27 L 78.236 59.963 L 77.384 61.241 L 78.131 62.24 L 78.131 62.24 Q 78.296 62.253 78.526 61.907 L 78.526 61.907 L 78.666 62 L 77.938 63.092 L 77.799 62.999 L 77.799 62.999 Q 78.047 62.626 77.938 62.486 L 77.938 62.486 L 75.185 58.785 L 75.398 58.466 L 79.873 59.584 L 79.873 59.584 Q 80.044 59.631 80.297 59.251 L 80.297 59.251 L 80.437 59.344 L 80.437 59.344 Z  M 77.963 59.897 L 76.035 59.429 L 77.217 61.015 L 77.963 59.897 L 77.963 59.897 Z  M 82.212 56.282 L 81.61 57.411 L 81.462 57.332 L 81.462 57.332 Q 81.665 56.951 81.558 56.812 L 81.558 56.812 L 78.008 54.917 L 78.008 54.917 Q 77.833 54.906 77.629 55.287 L 77.629 55.287 L 77.481 55.208 L 77.986 54.262 L 82.119 53.466 L 79.522 52.08 L 79.522 52.08 Q 79.347 52.068 79.143 52.449 L 79.143 52.449 L 78.995 52.37 L 79.598 51.241 L 79.746 51.32 L 79.746 51.32 Q 79.543 51.701 79.65 51.84 L 79.65 51.84 L 83.489 53.889 L 83.455 53.953 L 78.467 54.854 L 81.686 56.572 L 81.686 56.572 Q 81.861 56.584 82.064 56.203 L 82.064 56.203 L 82.212 56.282 L 82.212 56.282 Z  M 20.27 51.792 L 20.27 51.792 L 20.27 51.792 Q 20.007 51.156 19.222 50.945 L 19.222 50.945 L 19.222 50.945 Q 18.437 50.733 17.595 51.082 L 17.595 51.082 L 17.595 51.082 Q 17.085 51.293 16.748 51.588 L 16.748 51.588 L 16.748 51.588 Q 16.411 51.884 16.285 52.196 L 16.285 52.196 L 16.285 52.196 Q 16.159 52.508 16.157 52.795 L 16.157 52.795 L 16.157 52.795 Q 16.154 53.081 16.258 53.333 L 16.258 53.333 L 16.258 53.333 Q 16.43 53.747 16.723 54.058 L 16.723 54.058 L 18.238 53.43 L 18.238 53.43 Q 18.359 53.303 18.193 52.903 L 18.193 52.903 L 18.348 52.839 L 19.016 54.45 L 18.861 54.515 L 18.861 54.515 Q 18.695 54.116 18.52 54.11 L 18.52 54.11 L 17.278 54.625 L 17.278 54.625 Q 16.99 54.597 16.618 54.305 L 16.618 54.305 L 16.618 54.305 Q 16.246 54.013 16.001 53.422 L 16.001 53.422 L 16.001 53.422 Q 15.591 52.432 15.983 51.559 L 15.983 51.559 L 15.983 51.559 Q 16.374 50.687 17.261 50.319 L 17.261 50.319 L 17.261 50.319 Q 18.289 49.894 19.212 50.325 L 19.212 50.325 L 19.212 50.325 Q 20.136 50.757 20.518 51.681 L 20.518 51.681 L 20.518 51.681 Q 20.607 51.895 20.628 52.259 L 20.628 52.259 L 20.628 52.259 Q 20.649 52.622 20.667 52.667 L 20.667 52.667 L 20.667 52.667 Q 20.704 52.755 20.852 52.694 L 20.852 52.694 L 20.922 52.864 L 20.014 53.327 L 19.947 53.164 L 19.947 53.164 Q 20.253 52.985 20.355 52.614 L 20.355 52.614 L 20.355 52.614 Q 20.457 52.243 20.27 51.792 Z  M 20.261 60.959 L 19.289 59.502 L 19.429 59.409 L 19.429 59.409 Q 19.633 59.715 19.766 59.741 L 19.766 59.741 L 20.536 58.69 L 19.684 57.412 L 18.475 57.718 L 18.475 57.718 Q 18.399 57.864 18.63 58.21 L 18.63 58.21 L 18.49 58.304 L 17.762 57.212 L 17.902 57.119 L 17.902 57.119 Q 18.151 57.492 18.321 57.445 L 18.321 57.445 L 22.797 56.326 L 23.01 56.646 L 20.256 60.347 L 20.256 60.347 Q 20.148 60.487 20.401 60.866 L 20.401 60.866 L 20.261 60.959 L 20.261 60.959 Z  M 20.702 58.463 L 21.876 56.863 L 19.957 57.345 L 20.702 58.463 L 20.702 58.463 Z  M 22.453 63.745 L 21.563 62.825 L 21.683 62.708 L 21.683 62.708 Q 21.984 63.019 22.149 62.959 L 22.149 62.959 L 25.041 60.161 L 25.041 60.161 Q 25.106 59.998 24.806 59.688 L 24.806 59.688 L 24.926 59.571 L 25.672 60.341 L 25.161 64.52 L 27.277 62.473 L 27.277 62.473 Q 27.342 62.31 27.042 61.999 L 27.042 61.999 L 27.162 61.882 L 28.052 62.802 L 27.932 62.919 L 27.932 62.919 Q 27.631 62.609 27.466 62.668 L 27.466 62.668 L 24.338 65.694 L 24.288 65.642 L 24.96 60.618 L 22.338 63.155 L 22.338 63.155 Q 22.273 63.318 22.573 63.628 L 22.573 63.628 L 22.453 63.745 L 22.453 63.745 Z  M 31.138 65.525 L 31.138 65.525 L 31.138 65.525 Q 30.566 65.144 29.796 65.405 L 29.796 65.405 L 29.796 65.405 Q 29.026 65.665 28.52 66.424 L 28.52 66.424 L 28.52 66.424 Q 28.214 66.883 28.098 67.316 L 28.098 67.316 L 28.098 67.316 Q 27.983 67.749 28.052 68.078 L 28.052 68.078 L 28.052 68.078 Q 28.12 68.408 28.278 68.647 L 28.278 68.647 L 28.278 68.647 Q 28.435 68.887 28.662 69.038 L 28.662 69.038 L 28.662 69.038 Q 29.034 69.286 29.452 69.382 L 29.452 69.382 L 30.361 68.017 L 30.361 68.017 Q 30.39 67.844 30.031 67.604 L 30.031 67.604 L 30.124 67.465 L 31.575 68.432 L 31.482 68.572 L 31.482 68.572 Q 31.122 68.332 30.974 68.425 L 30.974 68.425 L 30.228 69.544 L 30.228 69.544 Q 29.973 69.681 29.502 69.646 L 29.502 69.646 L 29.502 69.646 Q 29.03 69.61 28.498 69.255 L 28.498 69.255 L 28.498 69.255 Q 27.606 68.661 27.446 67.718 L 27.446 67.718 L 27.446 67.718 Q 27.286 66.775 27.819 65.976 L 27.819 65.976 L 27.819 65.976 Q 28.436 65.051 29.443 64.895 L 29.443 64.895 L 29.443 64.895 Q 30.45 64.74 31.282 65.295 L 31.282 65.295 L 31.282 65.295 Q 31.475 65.423 31.695 65.714 L 31.695 65.714 L 31.695 65.714 Q 31.915 66.005 31.955 66.031 L 31.955 66.031 L 31.955 66.031 Q 32.034 66.085 32.123 65.952 L 32.123 65.952 L 32.276 66.054 L 31.779 66.943 L 31.633 66.846 L 31.633 66.846 Q 31.788 66.526 31.666 66.161 L 31.666 66.161 L 31.666 66.161 Q 31.544 65.796 31.138 65.525 Z  M 36.041 73.526 L 34.495 72.701 L 34.574 72.553 L 34.574 72.553 Q 34.899 72.726 35.029 72.686 L 35.029 72.686 L 35.21 71.396 L 33.855 70.672 L 32.934 71.514 L 32.934 71.514 Q 32.937 71.679 33.304 71.875 L 33.304 71.875 L 33.225 72.023 L 32.067 71.405 L 32.146 71.257 L 32.146 71.257 Q 32.541 71.468 32.67 71.346 L 32.67 71.346 L 36.084 68.244 L 36.423 68.425 L 35.747 72.988 L 35.747 72.988 Q 35.717 73.163 36.12 73.377 L 36.12 73.377 L 36.041 73.526 L 36.041 73.526 Z  M 35.249 71.117 L 35.527 69.153 L 34.064 70.485 L 35.249 71.117 L 35.249 71.117 Z " fill="rgb(0,0,0)"/></g></svg>