<?xml version="1.0" encoding="UTF-8" standalone="no"?><!-- Generator: Gravit.io --><svg xmlns="http://www.w3.org/2000/svg" xmlns:xlink="http://www.w3.org/1999/xlink" style="isolation:isolate" viewBox="5 8.762 86.57 62.476" width="86.57pt" height="62.476pt"><g><path d=" M 73.145 66.56 C 73.542 66.249 73.939 65.994 74.279 65.767 C 82.301 60.664 81.082 71.464 88.509 68.97 C 86.411 68.063 86.298 68.63 84.512 67.014 C 83.548 66.164 82.783 65.03 81.961 63.782 C 77.567 57.093 75.526 55.307 67.249 59.757 C 60.106 63.612 45.734 64.945 37.627 64.973 C 33.942 65.001 30.172 64.831 26.515 64.548 C 23.255 64.293 18.833 63.556 16.027 63.556 C 27.054 67.609 49.646 66.844 62.345 62.989 C 67.022 61.6 71.047 59.474 76.49 60.92 C 74.534 63.272 66.71 65.682 62.657 66.674 C 50.014 69.764 31.079 69.622 18.408 66.39 C 17.983 66.305 12.143 64.179 14.751 66.107 C 20.846 70.614 51.205 73.959 69.687 68.119 C 70.055 67.978 70.452 67.864 70.849 67.723 C 72.011 67.326 72.181 67.269 73.145 66.56 L 73.145 66.56 Z " fill-rule="evenodd" fill="rgb(255,7,58)"/><path d=" M 38.232 33.259 C 37.693 32.296 38.196 31.968 39.273 31.883 C 41.711 31.684 48.032 31.911 50.329 32.166 C 50.782 34.717 46.899 34.32 45.68 35.171 C 46.984 35.794 48.571 35.426 49.677 36.333 C 49.166 37.949 46.388 38.431 44.206 38.431 C 41.569 38.459 39.897 38.005 38.225 36.872 C 38.281 35.029 38.735 35.483 39.869 34.717 C 41.115 34.156 40.219 35.561 38.232 33.259 L 38.232 33.259 Z  M 41.314 39.99 C 44.121 40.273 49.875 39.876 51.661 37.807 C 53.39 35.766 50.527 35.341 49.336 34.802 C 50.669 34.235 52.455 33.527 52.199 31.826 C 51.916 29.813 49.28 30.352 47.551 30.607 C 43.639 31.117 40.294 30.692 36.609 29.813 C 40.417 37.694 31.32 38.941 41.314 39.99 Z " fill-rule="evenodd" fill="rgb(255,7,58)"/><path d=" M 5 56.157 L 5 58.17 C 5.822 59.531 6.332 60.466 8.005 61.203 C 9.507 61.855 11.406 62.082 13.22 61.997 C 12.257 61.146 10.981 61.26 9.791 60.126 C 8.487 58.879 8.997 57.234 10.046 56.299 C 15.828 51.168 30.37 50.913 37.854 51.48 L 37.91 38.016 L 37.712 29.342 C 37.542 23.474 38.307 17.72 42.304 15.594 C 44.373 14.488 47.35 14.148 49.872 14.998 C 57.129 17.464 55.287 29.228 55.117 37.08 L 54.975 55.335 C 52.509 56.894 47.293 57.66 43.863 57.801 C 38.704 58 36.096 57.121 31.759 56.072 C 33.261 59.247 48.087 61.855 55.428 57.773 C 59.283 55.647 56.704 55.052 57.809 50.261 C 64.017 49.354 73.457 51.282 77.595 54.23 C 80.742 56.497 88.027 68.573 91.4 65.653 L 91.57 65.54 C 87.772 64.179 86.241 62.62 84.483 58.879 C 81.167 51.849 77.198 49.184 69.148 47.568 C 66.937 47.115 58.858 46.378 57.696 45.726 C 57.214 36.683 59.964 20.327 54.663 13.326 C 51.488 9.159 49.476 9.981 47.151 8.762 L 43.296 8.762 C 41.652 9.499 37.967 9.612 34.82 12.674 C 32.581 14.857 31.844 17.521 31.532 21.745 C 30.937 29.795 31.419 38.044 31.334 46.179 C 24.389 47.937 12.852 49.184 6.928 53.663 C 6.02 54.343 5.737 55.137 5 56.157 L 5 56.157 Z " fill-rule="evenodd" fill="rgb(255,7,58)"/><path d=" M 58.518 52.217 C 59.624 53.493 65.576 52.416 70.367 53.323 C 71.331 53.521 73.117 54.201 73.712 54.258 C 70.083 53.181 74.08 52.614 62.402 51.423 C 60.786 51.282 59.227 50.601 58.518 52.217 L 58.518 52.217 Z " fill-rule="evenodd" fill="rgb(255,7,58)"/><path d=" M 42.761 33.319 C 40.578 33.886 41.06 36.891 43.781 36.295 C 45.964 35.842 45.539 32.639 42.761 33.319 Z " fill-rule="evenodd" fill="rgb(255,7,58)"/></g></svg>