<?xml version="1.0" encoding="UTF-8" standalone="no"?>
<!-- Created with Inkscape (http://www.inkscape.org/) -->

<svg
   xmlns:dc="http://purl.org/dc/elements/1.1/"
   xmlns:cc="http://creativecommons.org/ns#"
   xmlns:rdf="http://www.w3.org/1999/02/22-rdf-syntax-ns#"
   xmlns:svg="http://www.w3.org/2000/svg"
   xmlns="http://www.w3.org/2000/svg"
   xmlns:sodipodi="http://sodipodi.sourceforge.net/DTD/sodipodi-0.dtd"
   xmlns:inkscape="http://www.inkscape.org/namespaces/inkscape"
   width="50mm"
   height="50mm"
   viewBox="0 0 50 50"
   version="1.1"
   id="svg341"
   inkscape:version="0.92.4 5da689c313, 2019-01-14"
   sodipodi:docname="up state.svg">
  <defs
     id="defs335" />
  <sodipodi:namedview
     id="base"
     pagecolor="#ffffff"
     bordercolor="#666666"
     borderopacity="1.0"
     inkscape:pageopacity="0.0"
     inkscape:pageshadow="2"
     inkscape:zoom="5.3637116"
     inkscape:cx="94.488183"
     inkscape:cy="94.48817"
     inkscape:document-units="mm"
     inkscape:current-layer="layer1"
     showgrid="false"
     fit-margin-top="0"
     fit-margin-left="0"
     fit-margin-right="0"
     fit-margin-bottom="0"
     inkscape:window-width="1920"
     inkscape:window-height="1041"
     inkscape:window-x="0"
     inkscape:window-y="0"
     inkscape:window-maximized="1" />
  <metadata
     id="metadata338">
    <rdf:RDF>
      <cc:Work
         rdf:about="">
        <dc:format>image/svg+xml</dc:format>
        <dc:type
           rdf:resource="http://purl.org/dc/dcmitype/StillImage" />
        <dc:title />
      </cc:Work>
    </rdf:RDF>
  </metadata>
  <g
     inkscape:label="Layer 1"
     inkscape:groupmode="layer"
     id="layer1"
     transform="translate(-84.102995,-118.89667)">
    <path
       inkscape:connector-curvature="0"
       id="IN-UP"
       title="Uttar Pradesh"
       d="m 90.855567,123.54038 0.39423,-0.041 0.42413,0.46409 1.22237,0.59018 -0.51488,0.86528 -0.14102,0.14528 -0.14764,-0.0664 -0.15981,0.33187 0.0815,0.14075 -0.23362,0.24898 0.0823,0.12715 -0.15107,0.20925 0.0849,0.13755 -0.17172,0.2671 0.34714,0.55233 -0.0386,0.44463 0.20611,0.0989 -0.0132,0.11862 0.20187,0.0805 0.24871,-0.20872 0.4326,-0.0219 0.13758,0.58352 -0.13838,-0.0128 -0.0251,0.16367 0.20187,0.0152 0.0238,0.2695 0.2704,-0.0432 0.0392,-0.2583 0.21114,-0.056 0.31591,-0.47422 0.30136,-0.21726 0.20981,0.0381 0.55589,-0.58884 0.44768,0.15194 0.4154,0.19859 0.22013,0.74772 0.43153,0.39958 0.99854,0.54727 0.76121,0.12662 -0.29237,0.40678 -0.22913,0.15407 -0.1098,-0.0938 -0.11165,0.34147 -0.1741,-0.13061 -0.24103,0.20659 0.47625,0.37852 0.2921,-0.0219 0.2577,0.37346 0.007,0.33054 0.24342,0.006 0.0995,-0.10929 0.30294,0.31108 0.055,-0.346 0.57521,0.27297 0.0341,0.38145 0.15742,0.11463 -0.0394,0.1802 0.25348,-0.0395 0.525463,0.48248 0.29342,0.004 0.0431,-0.11462 0.096,0.21218 0.1352,0.0304 0.0542,0.48436 0.53182,-0.0472 0.16166,-0.18553 0.0802,0.29589 0.34687,-0.14475 0.29157,0.12928 0.25479,-0.20498 0.34502,-0.0706 0.18917,0.18366 -0.13996,0.36386 0.18018,-0.0435 0.0476,-0.20605 0.16378,0.003 0.11933,0.16447 -0.19421,0.0613 0.33629,0.0413 -0.0683,0.10369 0.18521,0.33614 0.25188,0.10797 0.25347,-0.13755 0.1487,-0.28977 -0.082,-0.10608 0.25876,-0.18927 v 0 l 0.26273,0.006 0.5424,0.46516 0.19129,-0.016 0.0312,0.18047 0.33549,0.18473 0.23495,0.39932 0.50906,0.052 0.3683,0.48728 0.0701,-0.13701 -0.14843,-0.58059 0.36142,-0.14288 0.23733,0.30762 0.31062,-0.0165 0.12515,0.34627 0.43021,0.13596 0.11695,0.2607 0.42386,0.21991 0.0574,-0.12795 0.18097,0.0768 0.032,0.18846 0.35904,0.21086 0.21168,-0.10903 0.0968,0.24178 0.24897,0.17967 0.7247,0.15327 0.1225,0.45183 0.48683,0.57792 0.003,0.17913 -0.1061,0.0112 0.14314,0.11809 -0.055,0.093 0.29554,-0.0554 0.0212,-0.21832 0.381,0.0928 0.22199,0.27723 -0.031,0.22392 0.80698,0.50994 0.43259,0.0938 1.01256,0.81276 0.22807,-0.0157 0.2331,-0.43423 0.55139,0.0341 0.30771,0.36759 0.4707,0.13728 1.33217,1.03082 1.43563,-0.27003 0.0212,0.35586 0.24448,0.49075 -0.11562,0.52301 1.07791,0.0139 0.13599,0.20685 0.44265,0.11916 0.85355,-0.0328 0.64585,0.76744 0.30135,-0.0736 0.27941,-0.4345 -0.13759,-0.14128 0.095,-0.13995 -0.0722,-0.13755 1.25042,0.0629 1.33932,0.74052 v 0 l -0.16377,0.17647 0.14234,0.072 0.3437,-0.0882 0.0497,0.13222 -0.15346,0.27936 0.313,0.15248 0.13441,0.21592 -0.21803,0.67015 0.45032,-0.0154 -0.16589,0.16767 0.27728,0.14901 0.0323,0.51527 -0.12038,0.11996 0.12619,0.0677 0.0241,0.24977 0.21061,0.0904 0.0585,-0.14714 0.22278,0.0824 -0.0508,0.19832 0.20638,0.13169 0.2233,-0.22685 0.17648,0.0533 0.0619,0.33427 -0.15319,0.32095 0.0519,0.10902 0.0741,0.0637 0.28072,-0.14901 0.15293,0.42864 0.42413,0.081 0.0675,0.2735 -0.78767,0.17274 -1.05463,-0.27004 0.004,0.2687 -0.19234,0.34814 -0.40772,0.0717 -0.0643,0.14474 -0.33417,-0.0589 5.3e-4,0.42065 0.44106,0.097 0.1606,-0.0858 0.3384,0.39638 0.55007,0.065 0.0571,0.35267 -0.12382,0.44037 -0.25665,-0.0992 -0.18627,0.2519 -0.3757,-0.12049 0.0368,0.59098 0.17118,0.28097 0.23257,0.0195 0.42201,0.43903 -0.006,0.20979 0.19712,-0.056 0.52361,0.33081 0.3048,-0.0762 0.31538,0.17273 0.0831,0.24018 0.58341,0.0906 -0.009,0.26763 0.16351,-0.0195 0.35295,0.26763 -0.10901,0.20606 0.16643,0.19913 -0.41513,-0.0498 -0.0185,0.32254 -0.11563,-0.0541 0.0249,-0.20739 -0.0627,0.25964 -0.20055,0.04 -0.21934,-0.22551 -0.25982,0.0922 -0.12118,-0.30308 -0.26961,0.0253 -0.0704,0.44756 -0.19394,-0.032 0.0111,0.096 -0.458,-0.0499 -0.0476,-0.20792 -0.25532,-0.1698 -0.29792,0.0653 -0.13705,0.15247 0.0378,0.35774 -0.88318,0.48621 -0.36486,0.52141 -0.22675,0.048 0.15584,0.17833 -0.24368,0.0325 0.0278,0.12662 -0.2077,0.14182 -0.16298,-0.13942 -0.1577,0.15008 -0.0521,-0.061 -0.10715,0.10876 0.0762,0.0437 -0.21458,0.0203 -0.15425,0.23618 -0.32253,0.13115 -0.13679,-0.0581 -0.43841,0.40305 -0.28258,0.0165 -0.11668,0.2591 -0.21378,0.0496 -0.0791,0.10769 0.12197,0.35054 -0.21722,0.65495 0.14234,0.0418 0.0561,0.85595 0.20162,0.22952 -0.0198,0.29882 0.3675,0.31108 0.1479,-0.0275 0.005,0.19566 0.18257,0.15035 -0.0897,0.17993 0.24288,0.15567 -0.23918,0.60511 v 0 l -0.58235,0.15754 -0.0643,0.27776 0.10346,0.28629 0.16483,0.0296 0.11906,0.23805 -0.41804,0.30549 0.14394,0.29588 -0.43392,1.0015 v 0 l -0.19103,0.17273 -0.072,0.30175 -0.33232,0.2058 -0.14684,0.41451 -0.56991,0.2607 -0.81889,0.0139 -0.72575,-0.52913 v 0 l -0.0579,-0.25564 -0.30639,-0.0986 0.13441,-0.34334 -0.32041,-0.0176 -0.28258,-0.32841 0.0746,-0.14394 0.27438,0.11835 0.0365,-0.51261 0.127,-0.0784 0.0788,-0.3428 -0.0198,-0.49075 -0.29581,-0.0738 0.16299,-0.69867 -0.11589,-0.0826 -0.0172,-0.2615 0.18547,0.0898 0.30322,-0.0682 -0.0246,-0.28736 -0.20082,-2.7e-4 0.0148,-0.27989 -0.37439,0.008 0.004,-0.19193 -0.21034,-0.15088 -0.71279,0.29589 -0.0598,-0.16127 -0.3855,0.003 -0.0915,-0.173 -0.17012,0.13701 0.0418,0.52514 -0.43974,-0.15834 -0.19844,0.0613 0.0138,-0.3436 -0.18309,-0.10023 -0.0571,0.12368 -0.12806,-0.0216 0.0759,-0.64802 -0.0294,0.13062 -0.0963,-0.0773 0.0103,0.0936 -0.12912,-0.002 0.0791,0.14288 -0.22648,-0.0666 0.0913,-0.26124 0.11139,0.005 -0.1688,-0.14155 0.0939,-0.12155 -0.20241,0.19726 h -0.26141 l -0.59452,-0.35747 -0.2532,0.12289 -0.3474,-0.37879 0.0865,-0.23485 -0.0751,-0.48168 -0.0685,0.10289 -0.31433,-0.1626 -0.22251,0.0565 -0.31459,-0.23618 -0.27967,0.0301 -0.12858,-0.22018 -0.30083,0.11622 -0.0585,-0.11676 0.21113,-0.14368 -0.0841,-0.11889 -0.086,0.13755 -0.0503,-0.22178 0.1487,-0.14261 -0.20611,-0.0528 -0.0852,-0.16848 -0.31486,0.0533 0.0836,0.26604 -0.16192,-0.0533 -0.12488,0.0933 0.19235,0.18579 -0.13229,0.1954 -0.45879,-0.20126 0.20743,-0.0163 -0.045,-0.14208 -0.2159,0.0642 -0.33946,-0.30255 -0.0939,0.0546 0.009,0.28976 -0.0458,-0.30469 -0.20637,-0.0107 -0.12965,0.38119 0.0881,0.22738 -0.33179,0.44543 0.0603,0.37453 -0.1561,0.0325 0.0807,-0.0339 -0.20796,-0.14528 -0.16061,0.40651 -0.31035,-0.36839 -0.37042,-0.0125 0.0402,0.13381 -0.34105,0.0413 -0.10186,-0.28629 -0.21881,0.0965 v 0 l 0.0302,0.10129 -0.0995,-0.0533 v 0 l -0.27649,0.0877 -0.18124,-0.0605 -0.0675,-0.1674 0.32226,-0.16154 -0.11906,-0.25137 0.24368,-0.19513 -0.0315,-0.32228 0.22119,-0.22471 -0.14896,-0.21646 -0.23124,0.0179 -0.0474,0.50515 -0.15584,-0.22152 -0.55377,0.057 0.14261,0.0874 -5.3e-4,0.15275 0.28098,0.0837 -2.6e-4,0.13835 -0.26988,-0.0621 -0.29712,0.10822 0.0317,-0.16927 -0.12727,0.0451 -0.30453,-0.18366 0.17198,-0.11569 -0.20929,-0.19593 0.0675,0.50914 -0.24553,-0.11782 -0.10557,0.14555 -0.18785,-0.20446 -0.18468,-0.007 0.13202,0.0778 -0.032,0.2711 -0.13282,0.004 -0.16351,-0.22898 -0.41487,0.14901 0.0908,0.29402 -0.12911,-0.1 -0.23389,0.14021 -0.27517,-0.1658 0.46725,-0.70241 0.40111,-0.17939 -0.13679,-0.42225 -0.11641,0.0336 -0.40958,-0.31534 0.037,-0.60431 -0.30401,-0.25457 -0.059,0.14634 -0.28416,-0.0693 -0.0333,0.19993 -0.35771,0.27776 -0.22146,-0.10689 -0.3466,0.0778 -0.13283,0.45743 -0.30003,-0.02 -0.1614,0.23618 -0.0611,-0.14422 -0.30612,0.10263 0.13811,0.55126 -0.1352,0.10369 0.0458,0.21379 -0.61092,-0.27803 -0.81836,0.0762 0.0272,-0.14288 -0.0725,0.0456 -0.13388,-0.18553 -0.4191,0.58112 -0.16245,-0.0832 0.0434,-0.23351 -0.20664,0.165 -0.0881,-0.19353 -0.0886,0.15701 -0.0847,-0.34814 0.14261,-0.23618 0.18335,-0.0232 -0.0868,-0.0768 0.17807,-0.27243 0.17277,-0.005 -0.18283,-0.0832 -0.23309,0.15141 -0.26512,-0.21538 -0.0802,0.17753 -0.12276,-0.17593 0.0839,-0.23938 -0.28364,-0.044 -0.19156,0.18393 -0.004,0.23831 0.1569,-0.11569 0.12356,0.17407 0.16643,-0.0666 -0.0609,0.2631 0.099,0.096 -0.0796,0.0824 -0.32676,-0.29002 0.0288,0.31108 0.19791,0.27909 -0.0627,0.11383 -0.23892,0.0688 -0.005,-0.19113 -0.12912,-0.0472 -0.121712,0.0773 0.164042,0.0464 -0.0283,0.14954 -0.177272,0.016 -0.11932,-0.22898 -0.10002,0.0539 0.0693,0.15115 -0.27754,0.0424 -0.11827,-0.2018 0.0696,-0.12555 -0.20003,-0.17407 -0.22833,0.33348 -0.11801,-0.0307 0.0156,-0.26603 0.17648,-0.24018 -0.24554,-0.13808 -0.0394,-0.17647 -0.18732,0.19673 0.13017,0.0685 0.006,0.23191 -0.26299,-0.14875 -0.4236,0.33241 0.0222,-0.55072 0.0876,0.0634 0.0937,-0.17754 0.17754,0.0717 0.16272,-0.13808 -0.0952,-0.39719 -0.1397,0.1117 -0.28311,-0.0784 -0.19235,0.70773 -0.20002,-0.25644 0.0333,-0.17726 -0.15742,0.0136 0.0482,-0.10556 0.28549,-0.1077 -0.0317,-0.12155 0.20505,-0.21805 0.41301,-0.077 -0.1008,0.14154 -0.21432,0.0112 0.20056,0.14448 0.27622,-0.14874 -0.10186,-0.38625 -0.17172,0.0648 -0.1434,-0.1141 0.17965,-0.20365 -0.10689,-0.25031 0.14129,-0.064 -0.0617,-0.17567 -0.077,0.11329 -0.036,-0.11089 -0.1995,0.0144 0.009,0.201 -0.26405,0.088 0.15981,0.26337 -0.12674,0.21325 -0.113241,-0.085 0.17648,-0.0496 -0.0879,-0.0696 -0.40613,-0.0642 -0.13706,-0.15088 -0.0394,0.22978 0.16828,0.181 0.32041,0.0211 -0.38656,0.10876 0.11774,0.33374 -0.28099,0.0333 -0.0257,-0.15834 -0.28311,-0.0568 -0.008,-0.19726 0.0698,0.0997 0.17886,-0.15354 -0.0865,-0.11622 -0.18309,0.0232 -0.13361,0.23058 -0.13917,-0.065 -0.0839,0.15327 -0.15081,-0.0221 0.0836,0.26897 -0.28284,-0.068 0.0905,0.22365 -0.0908,0.12288 -0.13758,0.0149 -0.0447,-0.12102 -0.13917,0.18927 -0.14658,-0.0685 -0.0733,0.0952 0.1479,0.11089 0.23627,-0.14288 0.3982,0.21645 0.15822,0.98577 0.24791,0.22285 -0.11006,0.59151 0.17515,0.12635 0.0815,0.25617 0.53208,0.25084 0.0892,0.28363 -0.0886,0.12235 0.0434,0.555 -0.17912,0.26976 0.0521,0.33587 0.15187,0.0725 0.58076,-0.28442 0.46885,0.87061 -0.19738,0.076 -0.0937,-0.0994 -0.0291,0.20765 0.41989,0.15514 -0.0971,0.53447 -0.32729,0.31908 -0.16007,0.47582 -0.36195,0.0778 -0.12092,0.18287 -0.17409,-0.47636 -0.0796,0.11702 -0.0757,-0.0885 -0.184611,0.11789 -0.164839,-0.0645 -0.50218,-0.68188 -0.40481,-0.22472 -0.39105,0.58618 -0.30533,0.13462 -0.29713,-0.32921 0.19367,-0.342 -0.52096,-0.37533 0.0151,-0.17567 -0.27622,-0.28416 0.21695,-0.21592 0.0529,-0.66482 -0.26643,-0.49021 -0.063,-0.40172 -0.2503,-0.26923 0.009,-0.15088 0.898,-0.7208 10e-4,-0.54646 0.37438,-0.2559 0.26353,0.0107 -0.13626,-0.15141 0.15584,-0.0954 -0.33841,-0.16021 0.0688,-0.13861 -0.23944,-0.17354 -0.0521,-0.31854 -0.20558,-0.08 0.12885,-0.15781 -0.19817,-0.23405 0.19262,-0.161 0.0958,-0.33081 0.1651,0.0397 0.23997,-0.17967 -0.0667,-0.33987 0.1143,-0.1906 0.1434,0.0733 0.17198,-0.18633 0.52573,0.11036 0.15214,-0.15247 0.22145,0.14421 0.15743,-0.17514 0.70988,-0.18739 0.0339,-0.30735 -0.35745,-0.45957 0.40825,-0.31001 0.01,-0.0976 -0.12964,-0.0184 0.0688,-0.0736 0.28046,0.19086 -0.0847,-0.37826 0.19976,-0.0602 -0.0349,-0.27989 0.29448,-0.20793 0.0818,-0.54086 0.32596,-0.27696 -0.33522,-0.35454 0.32146,-0.0978 -0.12911,-0.25057 0.20796,-0.0123 0.0304,-0.22765 0.20294,0.008 -0.11086,-0.21112 0.16721,-0.12768 0.0905,0.0941 0.0569,-0.24471 0.18151,-0.0253 -0.0606,-0.11809 0.10027,-0.061 -0.31564,-0.10983 0.0556,-0.34147 0.16853,0.004 0.0526,-0.1714 -0.43365,-0.0698 0.0691,-0.29296 -0.22357,-0.29988 -0.12515,0.004 -0.0368,-0.1946 -0.0648,0.0512 0.1442,-0.22605 -0.0691,-0.46009 -0.30612,0.13595 0.0566,-0.21166 -0.24474,-0.10316 -0.21617,0.0541 -0.29633,-0.37799 -0.2495,0.006 -0.14023,-0.17407 -0.10028,0.0821 -0.0421,-0.12982 -0.31194,0.19246 -0.5162,0.072 -0.63738,-0.2511 -0.13785,-0.21299 -0.20003,0.0461 -0.21272,-0.30788 -0.38365,0.0642 -0.11747,0.26816 -0.28284,-0.0941 v 0 l -0.10345,-0.32681 0.19632,0.037 0.19738,-0.2543 -0.25639,-0.18953 -0.059,0.0938 -0.52017,-0.0893 -0.0548,0.30042 -0.32808,-0.065 0.031,0.25271 -0.14288,0.0869 -0.0849,-0.30975 -0.35851,0.0674 -0.23283,-0.15408 -0.0542,0.21832 -0.75724,-0.30042 -0.19103,0.13275 -0.0172,0.21832 -0.61648,0.30202 -0.46434,0.0669 -0.12568,-0.16128 -0.0942,0.374 0.0685,0.12955 -0.24951,0.12582 0.0886,-0.14182 -0.19765,-0.004 0.0587,-0.30495 -0.0929,-0.29775 1.25439,-0.66482 0.48419,-0.0896 0.10345,-0.21539 -0.15822,-0.0546 -0.023,0.19433 -0.10371,2.6e-4 -0.16749,-0.3194 -0.25453,0.22472 -0.38761,-0.13328 0.0458,-0.25644 -0.24527,0.0674 -0.12726,-0.17434 0.5117,-0.17406 0.0794,-0.2831 0.27411,-0.0443 0.10186,-0.15461 -0.18547,-0.10556 0.0259,-0.13488 -0.29105,-0.38519 0.12436,-0.26763 -0.21908,0.10422 -0.42809,-0.34147 -0.36195,-0.11142 -0.0926,-0.16394 0.0796,-0.22925 -0.18362,-0.0986 -0.0775,-0.24231 -0.26194,-0.0845 -0.0262,-0.25724 0.10927,-0.13968 -0.21563,-0.11436 0.1725,-0.25883 -0.032,-0.27084 -0.21564,-0.14101 0.036,-0.43477 -0.1569,-0.11649 v 0 l 0.3519,-0.33267 0.40454,0.003 -5.3e-4,-0.23299 0.25586,0.0682 0.0569,-0.29908 0.2794,0.007 0.10054,-0.16287 -0.14816,-0.0656 0.13652,-0.15808 -0.31088,-0.31934 -0.0566,-0.26337 0.0519,-0.13808 0.0781,0.0626 0.0225,-0.38946 0.25452,-0.13701 -0.27807,-0.0219 -0.0167,-0.16927 0.16589,0.0642 -0.0193,-0.1762 0.14181,-0.11332 -0.40931,-0.13862 0.14103,-0.0688 0.0169,-0.16634 -0.17753,-0.19539 0.1688,-0.12795 -0.10901,-0.3484 -0.75803,-0.60298 v 0 l -0.24315,-0.36493 0.23468,-0.2663 -0.13837,-0.22605 0.068,-0.45103 -0.21351,0.0216 -0.33364,-0.47582 -0.15373,-0.0485 0.11298,-0.25351 -0.16854,-0.19992 v 0 l -0.0283,-0.14581 0.21828,-0.0906 -0.17198,-0.32681 0.13309,-0.31935 -0.51038,-0.6339 0.0995,-0.48488 -0.0818,-0.27217 0.10425,-0.11755 -0.0807,-0.18767 0.13547,-0.39905 -0.18786,-0.0909 -0.0172,-0.17113 0.16562,-0.0834 -0.11615,-0.13302 0.0751,-0.20072 -0.30189,-0.58352 0.13732,-0.12369 -0.13335,-0.30521 0.31962,-0.67202 -0.14552,-0.41504 0.19579,-0.14342 0.15399,-0.72266 0.45932,-0.6147 0.0402,-0.29642 0.79772,-0.37693 -0.091,-0.0746 0.14156,-0.31935 0.27543,-0.12928 0.29633,-0.60218 0.2413,-0.18606 0.12012,-0.38359 -0.095,-0.0877 v 0 z"
       style="stroke-width:0.26458332;fill:#ff0000" />
  </g>
</svg>
