<?xml version="1.0" encoding="UTF-8" standalone="no"?><!-- Generator: Gravit.io --><svg xmlns="http://www.w3.org/2000/svg" xmlns:xlink="http://www.w3.org/1999/xlink" style="isolation:isolate" viewBox="0 0 150 150" width="150pt" height="150pt"><defs><clipPath id="_clipPath_HxfspOjYoT2GL8KNg61DYydSoqYveQeG"><rect width="150" height="150"/></clipPath></defs><g clip-path="url(#_clipPath_HxfspOjYoT2GL8KNg61DYydSoqYveQeG)"><g><circle vector-effect="non-scaling-stroke" cx="75" cy="75" r="62.5" fill="none" stroke-width="2" stroke="rgb(102,102,102)" stroke-linejoin="miter" stroke-linecap="square" stroke-miterlimit="3"/><g><path d=" M 99.86 92.798 C 100.257 92.487 100.654 92.232 100.994 92.005 C 109.016 86.902 107.797 97.702 115.224 95.208 C 113.126 94.301 113.013 94.868 111.227 93.252 C 110.263 92.402 109.498 91.268 108.676 90.02 C 104.282 83.331 102.241 81.545 93.964 85.995 C 86.82 89.85 72.449 91.183 64.342 91.211 C 60.657 91.239 56.887 91.069 53.23 90.786 C 49.97 90.531 45.548 89.794 42.742 89.794 C 53.769 93.847 76.361 93.082 89.06 89.227 C 93.737 87.838 97.762 85.712 103.205 87.158 C 101.249 89.51 93.425 91.92 89.372 92.912 C 76.729 96.002 57.794 95.86 45.123 92.628 C 44.698 92.543 38.858 90.417 41.466 92.345 C 47.561 96.852 77.92 100.197 96.402 94.357 C 96.77 94.216 97.167 94.102 97.564 93.961 C 98.726 93.564 98.896 93.507 99.86 92.798 L 99.86 92.798 Z " fill-rule="evenodd" fill="rgb(102,102,102)"/><path d=" M 64.947 59.497 C 64.408 58.533 64.911 58.206 65.988 58.121 C 68.426 57.922 74.747 58.149 77.044 58.404 C 77.497 60.955 73.614 60.558 72.395 61.409 C 73.699 62.032 75.286 61.664 76.392 62.571 C 75.881 64.187 73.103 64.669 70.921 64.669 C 68.284 64.697 66.612 64.243 64.94 63.11 C 64.996 61.267 65.45 61.721 66.584 60.955 C 67.83 60.394 66.934 61.799 64.947 59.497 L 64.947 59.497 Z  M 68.029 66.228 C 70.836 66.511 76.59 66.114 78.376 64.045 C 80.105 62.004 77.242 61.579 76.051 61.04 C 77.384 60.473 79.17 59.765 78.914 58.064 C 78.631 56.051 75.995 56.59 74.266 56.845 C 70.354 57.355 67.009 56.93 63.324 56.051 C 67.132 63.932 58.035 65.179 68.029 66.228 Z " fill-rule="evenodd" fill="rgb(102,102,102)"/><path d=" M 31.715 82.395 L 31.715 84.408 C 32.537 85.769 33.047 86.704 34.72 87.441 C 36.222 88.093 38.121 88.32 39.935 88.235 C 38.972 87.384 37.696 87.498 36.506 86.364 C 35.202 85.117 35.712 83.472 36.761 82.537 C 42.543 77.406 57.085 77.151 64.569 77.718 L 64.625 64.254 L 64.427 55.58 C 64.257 49.712 65.022 43.957 69.019 41.832 C 71.088 40.726 74.065 40.386 76.587 41.236 C 83.844 43.702 82.002 55.466 81.832 63.318 L 81.69 81.573 C 79.224 83.132 74.008 83.898 70.578 84.039 C 65.419 84.238 62.811 83.359 58.474 82.31 C 59.976 85.485 74.802 88.093 82.143 84.011 C 85.998 81.885 83.419 81.29 84.524 76.499 C 90.732 75.592 100.172 77.52 104.31 80.468 C 107.457 82.735 114.742 94.811 118.115 91.891 L 118.285 91.778 C 114.487 90.417 112.956 88.858 111.198 85.117 C 107.882 78.087 103.913 75.422 95.863 73.806 C 93.652 73.353 85.573 72.616 84.411 71.964 C 83.929 62.921 86.679 46.565 81.378 39.564 C 78.203 35.397 76.191 36.219 73.866 35 L 70.011 35 C 68.367 35.737 64.682 35.85 61.535 38.912 C 59.296 41.095 58.559 43.759 58.247 47.983 C 57.652 56.033 58.134 64.282 58.049 72.417 C 51.104 74.175 39.567 75.422 33.643 79.901 C 32.735 80.581 32.452 81.375 31.715 82.395 L 31.715 82.395 Z " fill-rule="evenodd" fill="rgb(255,7,58)"/><path d=" M 85.233 78.455 C 86.339 79.731 92.291 78.654 97.082 79.561 C 98.046 79.759 99.832 80.439 100.427 80.496 C 96.798 79.419 100.795 78.852 89.117 77.661 C 87.501 77.52 85.942 76.839 85.233 78.455 L 85.233 78.455 Z " fill-rule="evenodd" fill="rgb(255,7,58)"/><path d=" M 69.476 59.557 C 67.293 60.124 67.775 63.129 70.496 62.533 C 72.679 62.08 72.254 58.877 69.476 59.557 Z " fill-rule="evenodd" fill="rgb(102,102,102)"/></g><path d=" M 92.367 132.072 L 89.592 132.928 L 89.518 132.687 L 89.518 132.687 Q 90.137 132.496 90.17 132.235 L 90.17 132.235 L 88.391 126.467 L 88.391 126.467 Q 88.217 126.269 87.598 126.46 L 87.598 126.46 L 87.523 126.219 L 90.161 125.406 L 90.161 125.406 Q 91.686 124.936 92.9 125.572 L 92.9 125.572 L 92.9 125.572 Q 94.113 126.209 94.573 127.7 L 94.573 127.7 L 94.573 127.7 Q 95.033 129.19 94.417 130.41 L 94.417 130.41 L 94.417 130.41 Q 93.801 131.63 92.367 132.072 L 92.367 132.072 L 92.367 132.072 Z  M 90.263 125.738 L 89.403 126.004 L 91.25 131.989 L 92.247 131.682 L 92.247 131.682 Q 92.614 131.569 92.913 131.294 L 92.913 131.294 L 92.913 131.294 Q 93.211 131.02 93.43 130.589 L 93.43 130.589 L 93.43 130.589 Q 93.648 130.157 93.659 129.501 L 93.659 129.501 L 93.659 129.501 Q 93.67 128.844 93.43 128.065 L 93.43 128.065 L 93.43 128.065 Q 92.97 126.574 92.064 126.018 L 92.064 126.018 L 92.064 126.018 Q 91.158 125.463 90.263 125.738 L 90.263 125.738 L 90.263 125.738 Z  M 101.697 128.4 L 99.397 129.648 L 99.277 129.427 L 99.277 129.427 Q 99.847 129.118 99.827 128.855 L 99.827 128.855 L 96.947 123.55 L 96.947 123.55 Q 96.738 123.391 96.168 123.7 L 96.168 123.7 L 96.048 123.479 L 98.347 122.231 L 98.467 122.452 L 98.467 122.452 Q 97.898 122.761 97.918 123.024 L 97.918 123.024 L 99.194 125.375 L 101.894 123.91 L 100.617 121.558 L 100.617 121.558 Q 100.408 121.399 99.838 121.708 L 99.838 121.708 L 99.718 121.486 L 102.017 120.238 L 102.138 120.46 L 102.138 120.46 Q 101.568 120.769 101.588 121.031 L 101.588 121.031 L 104.467 126.336 L 104.467 126.336 Q 104.677 126.495 105.246 126.186 L 105.246 126.186 L 105.367 126.408 L 103.068 127.656 L 102.947 127.434 L 102.947 127.434 Q 103.517 127.125 103.497 126.863 L 103.497 126.863 L 102.089 124.268 L 99.389 125.734 L 100.797 128.328 L 100.797 128.328 Q 101.007 128.488 101.576 128.179 L 101.576 128.179 L 101.697 128.4 L 101.697 128.4 Z  M 113.62 120.504 L 111.593 122.177 L 111.433 121.982 L 111.433 121.982 Q 111.858 121.631 111.878 121.428 L 111.878 121.428 L 110.191 120.44 L 108.414 121.907 L 109.055 123.664 L 109.055 123.664 Q 109.285 123.755 109.767 123.357 L 109.767 123.357 L 109.927 123.552 L 108.409 124.804 L 108.249 124.61 L 108.249 124.61 Q 108.767 124.182 108.672 123.935 L 108.672 123.935 L 106.319 117.427 L 106.763 117.061 L 112.707 120.604 L 112.707 120.604 Q 112.932 120.745 113.459 120.31 L 113.459 120.31 L 113.62 120.504 L 113.62 120.504 Z  M 109.828 120.226 L 107.261 118.719 L 108.273 121.51 L 109.828 120.226 L 109.828 120.226 Z  M 118.03 116.426 L 116.208 118.304 L 116.027 118.128 L 116.027 118.128 Q 116.478 117.663 116.381 117.418 L 116.381 117.418 L 112.049 113.216 L 112.049 113.216 Q 111.802 113.126 111.35 113.591 L 111.35 113.591 L 111.17 113.416 L 113.058 111.469 L 113.058 111.469 Q 114.094 110.401 115.016 110.226 L 115.016 110.226 L 115.016 110.226 Q 115.939 110.051 116.438 110.535 L 116.438 110.535 L 116.438 110.535 Q 116.912 110.995 116.994 111.626 L 116.994 111.626 L 116.994 111.626 Q 117.075 112.257 116.696 112.975 L 116.696 112.975 L 119.857 113.819 L 119.857 113.819 Q 120.122 113.908 120.589 113.426 L 120.589 113.426 L 120.77 113.601 L 120.411 113.971 L 120.411 113.971 Q 119.826 114.574 119.582 114.688 L 119.582 114.688 L 119.582 114.688 Q 119.337 114.802 118.852 114.682 L 118.852 114.682 L 115.998 113.936 L 115.212 114.746 L 117.15 116.626 L 117.15 116.626 Q 117.398 116.716 117.849 116.251 L 117.849 116.251 L 118.03 116.426 L 118.03 116.426 Z  M 113.351 111.753 L 112.758 112.365 L 114.919 114.462 L 115.613 113.747 L 115.613 113.747 Q 116.281 113.058 116.265 112.541 L 116.265 112.541 L 116.265 112.541 Q 116.249 112.023 115.611 111.405 L 115.611 111.405 L 115.611 111.405 Q 115.138 110.945 114.599 110.983 L 114.599 110.983 L 114.599 110.983 Q 114.061 111.021 113.351 111.753 L 113.351 111.753 L 113.351 111.753 Z  M 124.347 108.887 L 124.347 108.887 L 124.347 108.887 Q 124.018 109.374 123.526 109.781 L 123.526 109.781 L 123.526 109.781 Q 123.035 110.187 123.021 110.207 L 123.021 110.207 L 123.021 110.207 Q 122.981 110.267 122.987 110.387 L 122.987 110.387 L 122.987 110.387 Q 122.993 110.507 123.072 110.56 L 123.072 110.56 L 122.918 110.789 L 121.535 109.856 L 121.683 109.637 L 121.683 109.637 Q 122.354 109.931 122.953 109.633 L 122.953 109.633 L 122.953 109.633 Q 123.552 109.335 123.968 108.718 L 123.968 108.718 L 123.968 108.718 Q 124.324 108.191 124.314 107.692 L 124.314 107.692 L 124.314 107.692 Q 124.303 107.193 123.826 106.87 L 123.826 106.87 L 123.826 106.87 Q 123.607 106.723 123.364 106.696 L 123.364 106.696 L 123.364 106.696 Q 123.121 106.67 122.836 106.76 L 122.836 106.76 L 122.836 106.76 Q 122.551 106.85 122.326 106.958 L 122.326 106.958 L 122.326 106.958 Q 122.101 107.067 121.755 107.246 L 121.755 107.246 L 121.755 107.246 Q 121.41 107.426 121.219 107.514 L 121.219 107.514 L 121.219 107.514 Q 120.766 107.715 120.537 107.807 L 120.537 107.807 L 120.537 107.807 Q 120.309 107.899 119.902 108.008 L 119.902 108.008 L 119.902 108.008 Q 119.495 108.117 119.166 108.068 L 119.166 108.068 L 119.166 108.068 Q 118.837 108.02 118.548 107.825 L 118.548 107.825 L 118.548 107.825 Q 117.962 107.429 117.847 106.57 L 117.847 106.57 L 117.847 106.57 Q 117.732 105.71 118.182 105.044 L 118.182 105.044 L 118.182 105.044 Q 118.376 104.756 118.814 104.429 L 118.814 104.429 L 118.814 104.429 Q 119.252 104.102 119.292 104.042 L 119.292 104.042 L 119.292 104.042 Q 119.373 103.923 119.174 103.788 L 119.174 103.788 L 119.329 103.56 L 120.659 104.313 L 120.511 104.532 L 120.511 104.532 Q 120.033 104.296 119.485 104.476 L 119.485 104.476 L 119.485 104.476 Q 118.936 104.656 118.527 105.262 L 118.527 105.262 L 118.527 105.262 Q 118.218 105.72 118.327 106.191 L 118.327 106.191 L 118.327 106.191 Q 118.435 106.663 118.734 106.864 L 118.734 106.864 L 118.734 106.864 Q 118.923 106.992 119.147 107.013 L 119.147 107.013 L 119.147 107.013 Q 119.372 107.034 119.639 106.94 L 119.639 106.94 L 119.639 106.94 Q 119.905 106.845 120.124 106.746 L 120.124 106.746 L 120.124 106.746 Q 120.342 106.647 120.683 106.465 L 120.683 106.465 L 120.683 106.465 Q 121.024 106.282 121.214 106.193 L 121.214 106.193 L 121.214 106.193 Q 121.738 105.953 121.978 105.855 L 121.978 105.855 L 121.978 105.855 Q 122.218 105.756 122.658 105.641 L 122.658 105.641 L 122.658 105.641 Q 123.098 105.525 123.439 105.588 L 123.439 105.588 L 123.439 105.588 Q 123.78 105.652 124.098 105.867 L 124.098 105.867 L 124.098 105.867 Q 124.834 106.364 124.849 107.242 L 124.849 107.242 L 124.849 107.242 Q 124.864 108.121 124.347 108.887 Z  M 128.781 101.21 L 127.533 103.509 L 127.311 103.389 L 127.311 103.389 Q 127.62 102.819 127.461 102.61 L 127.461 102.61 L 122.156 99.73 L 122.156 99.73 Q 121.894 99.71 121.584 100.28 L 121.584 100.28 L 121.363 100.16 L 122.611 97.861 L 122.833 97.981 L 122.833 97.981 Q 122.523 98.55 122.683 98.76 L 122.683 98.76 L 125.035 100.036 L 126.5 97.337 L 124.148 96.06 L 124.148 96.06 Q 123.886 96.04 123.577 96.61 L 123.577 96.61 L 123.355 96.49 L 124.603 94.19 L 124.825 94.311 L 124.825 94.311 Q 124.516 94.88 124.675 95.09 L 124.675 95.09 L 129.98 97.969 L 129.98 97.969 Q 130.242 97.989 130.552 97.419 L 130.552 97.419 L 130.773 97.54 L 129.525 99.839 L 129.303 99.719 L 129.303 99.719 Q 129.613 99.149 129.453 98.94 L 129.453 98.94 L 126.859 97.531 L 125.393 100.231 L 127.988 101.639 L 127.988 101.639 Q 128.25 101.659 128.559 101.09 L 128.559 101.09 L 128.781 101.21 L 128.781 101.21 Z  M 133.671 87.755 L 132.896 90.267 L 132.655 90.192 L 132.655 90.192 Q 132.818 89.665 132.723 89.485 L 132.723 89.485 L 130.77 89.586 L 130.091 91.787 L 131.593 92.904 L 131.593 92.904 Q 131.834 92.853 132.018 92.256 L 132.018 92.256 L 132.259 92.331 L 131.679 94.211 L 131.438 94.137 L 131.438 94.137 Q 131.636 93.495 131.42 93.34 L 131.42 93.34 L 125.88 89.195 L 126.05 88.644 L 132.963 88.341 L 132.963 88.341 Q 133.228 88.335 133.43 87.681 L 133.43 87.681 L 133.671 87.755 L 133.671 87.755 Z  M 130.349 89.607 L 127.377 89.757 L 129.755 91.533 L 130.349 89.607 L 130.349 89.607 Z  M 134.424 82.481 L 134.235 84.392 L 133.984 84.367 L 133.984 84.367 Q 134.048 83.722 133.82 83.591 L 133.82 83.591 L 127.813 82.994 L 127.813 82.994 Q 127.564 83.078 127.5 83.723 L 127.5 83.723 L 127.249 83.698 L 127.408 82.098 L 132.685 78.63 L 128.29 78.194 L 128.29 78.194 Q 128.041 78.277 127.977 78.922 L 127.977 78.922 L 127.726 78.897 L 127.916 76.987 L 128.166 77.012 L 128.166 77.012 Q 128.102 77.656 128.33 77.788 L 128.33 77.788 L 134.826 78.433 L 134.816 78.54 L 128.415 82.644 L 133.86 83.185 L 133.86 83.185 Q 134.11 83.101 134.174 82.456 L 134.174 82.456 L 134.424 82.481 L 134.424 82.481 Z  M 43.775 117.96 L 43.775 117.96 L 43.775 117.96 Q 42.979 117.303 41.79 117.575 L 41.79 117.575 L 41.79 117.575 Q 40.601 117.846 39.73 118.901 L 39.73 118.901 L 39.73 118.901 Q 39.203 119.54 38.965 120.168 L 38.965 120.168 L 38.965 120.168 Q 38.727 120.796 38.779 121.298 L 38.779 121.298 L 38.779 121.298 Q 38.831 121.8 39.03 122.182 L 39.03 122.182 L 39.03 122.182 Q 39.228 122.563 39.543 122.823 L 39.543 122.823 L 39.543 122.823 Q 40.061 123.251 40.669 123.457 L 40.669 123.457 L 42.235 121.56 L 42.235 121.56 Q 42.305 121.306 41.805 120.893 L 41.805 120.893 L 41.965 120.699 L 43.983 122.364 L 43.822 122.559 L 43.822 122.559 Q 43.323 122.146 43.087 122.262 L 43.087 122.262 L 41.803 123.817 L 41.803 123.817 Q 41.401 123.983 40.703 123.858 L 40.703 123.858 L 40.703 123.858 Q 40.005 123.733 39.265 123.122 L 39.265 123.122 L 39.265 123.122 Q 38.025 122.099 37.93 120.667 L 37.93 120.667 L 37.93 120.667 Q 37.836 119.236 38.753 118.125 L 38.753 118.125 L 38.753 118.125 Q 39.814 116.839 41.341 116.761 L 41.341 116.761 L 41.341 116.761 Q 42.868 116.683 44.025 117.638 L 44.025 117.638 L 44.025 117.638 Q 44.293 117.859 44.577 118.327 L 44.577 118.327 L 44.577 118.327 Q 44.86 118.794 44.916 118.84 L 44.916 118.84 L 44.916 118.84 Q 45.027 118.931 45.18 118.746 L 45.18 118.746 L 45.392 118.922 L 44.515 120.174 L 44.311 120.006 L 44.311 120.006 Q 44.592 119.553 44.465 118.989 L 44.465 118.989 L 44.465 118.989 Q 44.339 118.426 43.775 117.96 Z  M 50.521 129.658 L 48.211 128.404 L 48.331 128.183 L 48.331 128.183 Q 48.817 128.446 49.012 128.388 L 49.012 128.388 L 49.297 126.454 L 47.272 125.355 L 45.882 126.607 L 45.882 126.607 Q 45.885 126.854 46.433 127.152 L 46.433 127.152 L 46.313 127.373 L 44.583 126.435 L 44.704 126.213 L 44.704 126.213 Q 45.294 126.534 45.488 126.352 L 45.488 126.352 L 50.643 121.736 L 51.149 122.011 L 50.086 128.848 L 50.086 128.848 Q 50.04 129.11 50.641 129.436 L 50.641 129.436 L 50.521 129.658 L 50.521 129.658 Z  M 49.36 126.037 L 49.797 123.093 L 47.588 125.075 L 49.36 126.037 L 49.36 126.037 Z  M 55.534 131.455 L 53.7 130.889 L 53.774 130.648 L 53.774 130.648 Q 54.393 130.839 54.567 130.642 L 54.567 130.642 L 56.346 124.874 L 56.346 124.874 Q 56.314 124.613 55.694 124.422 L 55.694 124.422 L 55.769 124.181 L 57.305 124.655 L 59.654 130.516 L 60.956 126.296 L 60.956 126.296 Q 60.923 126.035 60.304 125.844 L 60.304 125.844 L 60.378 125.603 L 62.213 126.169 L 62.139 126.41 L 62.139 126.41 Q 61.52 126.219 61.346 126.416 L 61.346 126.416 L 59.421 132.654 L 59.318 132.622 L 56.57 125.533 L 54.957 130.762 L 54.957 130.762 Q 54.989 131.023 55.608 131.214 L 55.608 131.214 L 55.534 131.455 L 55.534 131.455 Z  M 68.332 127.524 L 68.332 127.524 L 68.332 127.524 Q 67.306 127.421 66.469 128.308 L 66.469 128.308 L 66.469 128.308 Q 65.633 129.195 65.496 130.557 L 65.496 130.557 L 65.496 130.557 Q 65.414 131.381 65.566 132.035 L 65.566 132.035 L 65.566 132.035 Q 65.717 132.689 66.04 133.077 L 66.04 133.077 L 66.04 133.077 Q 66.363 133.465 66.74 133.672 L 66.74 133.672 L 66.74 133.672 Q 67.118 133.879 67.524 133.919 L 67.524 133.919 L 67.524 133.919 Q 68.192 133.986 68.812 133.819 L 68.812 133.819 L 69.057 131.371 L 69.057 131.371 Q 68.973 131.122 68.329 131.057 L 68.329 131.057 L 68.354 130.806 L 70.957 131.067 L 70.932 131.318 L 70.932 131.318 Q 70.287 131.253 70.155 131.481 L 70.155 131.481 L 69.955 133.487 L 69.955 133.487 Q 69.714 133.849 69.064 134.134 L 69.064 134.134 L 69.064 134.134 Q 68.414 134.418 67.459 134.323 L 67.459 134.323 L 67.459 134.323 Q 65.859 134.163 64.984 133.026 L 64.984 133.026 L 64.984 133.026 Q 64.109 131.889 64.252 130.456 L 64.252 130.456 L 64.252 130.456 Q 64.418 128.797 65.643 127.882 L 65.643 127.882 L 65.643 127.882 Q 66.869 126.967 68.361 127.117 L 68.361 127.117 L 68.361 127.117 Q 68.707 127.151 69.203 127.382 L 69.203 127.382 L 69.203 127.382 Q 69.698 127.612 69.77 127.62 L 69.77 127.62 L 69.77 127.62 Q 69.913 127.634 69.937 127.395 L 69.937 127.395 L 70.212 127.423 L 70.18 128.951 L 69.917 128.925 L 69.917 128.925 Q 69.898 128.392 69.479 127.994 L 69.479 127.994 L 69.479 127.994 Q 69.061 127.597 68.332 127.524 Z  M 80.456 134.609 L 77.828 134.653 L 77.824 134.401 L 77.824 134.401 Q 78.376 134.392 78.517 134.245 L 78.517 134.245 L 77.815 132.421 L 75.511 132.459 L 74.917 134.233 L 74.917 134.233 Q 75.04 134.447 75.664 134.437 L 75.664 134.437 L 75.668 134.689 L 73.701 134.722 L 73.696 134.47 L 73.696 134.47 Q 74.368 134.458 74.448 134.205 L 74.448 134.205 L 76.667 127.651 L 77.243 127.642 L 79.679 134.118 L 79.679 134.118 Q 79.767 134.369 80.451 134.357 L 80.451 134.357 L 80.456 134.609 L 80.456 134.609 Z  M 77.664 132.027 L 76.598 129.249 L 75.649 132.061 L 77.664 132.027 L 77.664 132.027 Z  M 15.204 79.791 L 15.013 77.881 L 15.264 77.856 L 15.264 77.856 Q 15.328 78.5 15.578 78.584 L 15.578 78.584 L 21.584 77.983 L 21.584 77.983 Q 21.812 77.852 21.747 77.207 L 21.747 77.207 L 21.998 77.182 L 22.158 78.782 L 17.67 83.223 L 22.064 82.783 L 22.064 82.783 Q 22.292 82.652 22.227 82.007 L 22.227 82.007 L 22.478 81.982 L 22.669 83.892 L 22.419 83.917 L 22.419 83.917 Q 22.354 83.273 22.104 83.189 L 22.104 83.189 L 15.609 83.839 L 15.598 83.731 L 21.063 78.445 L 15.618 78.99 L 15.618 78.99 Q 15.39 79.121 15.455 79.766 L 15.455 79.766 L 15.204 79.791 L 15.204 79.791 Z  M 18.252 94.311 L 17.477 91.8 L 17.718 91.725 L 17.718 91.725 Q 17.881 92.253 18.061 92.348 L 18.061 92.348 L 19.617 91.164 L 18.938 88.963 L 17.068 88.887 L 17.068 88.887 Q 16.897 89.065 17.081 89.661 L 17.081 89.661 L 16.84 89.736 L 16.26 87.855 L 16.501 87.781 L 16.501 87.781 Q 16.699 88.423 16.965 88.429 L 16.965 88.429 L 23.877 88.732 L 24.047 89.283 L 18.507 93.428 L 18.507 93.428 Q 18.291 93.583 18.493 94.236 L 18.493 94.236 L 18.252 94.311 L 18.252 94.311 Z  M 19.953 90.91 L 22.324 89.111 L 19.359 88.984 L 19.953 90.91 L 19.953 90.91 Z  M 20.088 99.308 L 19.172 97.621 L 19.393 97.5 L 19.393 97.5 Q 19.702 98.07 19.965 98.05 L 19.965 98.05 L 25.269 95.171 L 25.269 95.171 Q 25.429 94.961 25.12 94.392 L 25.12 94.392 L 25.341 94.271 L 26.177 95.811 L 22.492 100.72 L 28.616 100.304 L 29.463 101.865 L 29.242 101.985 L 29.242 101.985 Q 28.933 101.415 28.67 101.435 L 28.67 101.435 L 23.365 104.315 L 23.365 104.315 Q 23.206 104.524 23.515 105.094 L 23.515 105.094 L 23.294 105.214 L 22.046 102.915 L 22.267 102.795 L 22.267 102.795 Q 22.576 103.364 22.839 103.345 L 22.839 103.345 L 27.574 100.774 L 21.124 101.217 L 21.038 101.059 L 24.958 95.804 L 20.159 98.409 L 20.159 98.409 Q 20 98.618 20.309 99.188 L 20.309 99.188 L 20.088 99.308 L 20.088 99.308 Z  M 28.853 107.359 L 28.853 107.359 L 28.853 107.359 Q 28.242 107.864 27.824 108.497 L 27.824 108.497 L 27.824 108.497 Q 27.405 109.13 27.318 109.863 L 27.318 109.863 L 27.318 109.863 Q 27.231 110.597 27.681 111.143 L 27.681 111.143 L 27.681 111.143 Q 28.132 111.689 28.83 111.743 L 28.83 111.743 L 28.83 111.743 Q 29.528 111.797 30.177 111.518 L 30.177 111.518 L 30.177 111.518 Q 30.826 111.239 31.409 110.758 L 31.409 110.758 L 31.409 110.758 Q 32.011 110.261 32.435 109.616 L 32.435 109.616 L 32.435 109.616 Q 32.859 108.97 32.946 108.237 L 32.946 108.237 L 32.946 108.237 Q 33.033 107.503 32.59 106.967 L 32.59 106.967 L 32.59 106.967 Q 32.246 106.55 31.761 106.414 L 31.761 106.414 L 31.761 106.414 Q 31.275 106.278 30.76 106.4 L 30.76 106.4 L 30.76 106.4 Q 30.246 106.521 29.762 106.764 L 29.762 106.764 L 29.762 106.764 Q 29.279 107.008 28.853 107.359 Z  M 28.015 106.495 L 28.015 106.495 L 28.015 106.495 Q 29.172 105.54 30.591 105.582 L 30.591 105.582 L 30.591 105.582 Q 32.011 105.624 32.935 106.744 L 32.935 106.744 L 32.935 106.744 Q 33.859 107.864 33.632 109.266 L 33.632 109.266 L 33.632 109.266 Q 33.404 110.667 32.247 111.622 L 32.247 111.622 L 32.247 111.622 Q 31.09 112.577 29.671 112.526 L 29.671 112.526 L 29.671 112.526 Q 28.253 112.476 27.336 111.365 L 27.336 111.365 L 27.336 111.365 Q 26.404 110.236 26.627 108.847 L 26.627 108.847 L 26.627 108.847 Q 26.849 107.457 28.015 106.495 Z " fill="rgb(0,0,0)"/></g></g></svg>