<?xml version="1.0" encoding="UTF-8" standalone="no"?><!-- Generator: Gravit.io --><svg xmlns="http://www.w3.org/2000/svg" xmlns:xlink="http://www.w3.org/1999/xlink" style="isolation:isolate" viewBox="0 0 150 150" width="150pt" height="150pt"><defs><clipPath id="_clipPath_K5WuZym65BkSUhOGtn7Y5SxUGXui5uws"><rect width="150" height="150"/></clipPath></defs><g clip-path="url(#_clipPath_K5WuZym65BkSUhOGtn7Y5SxUGXui5uws)"><g><circle vector-effect="non-scaling-stroke" cx="75" cy="75" r="62.5" fill="none" stroke-width="2" stroke="rgb(102,102,102)" stroke-linejoin="miter" stroke-linecap="square" stroke-miterlimit="3"/><g><path d=" M 99.86 92.798 C 100.257 92.487 100.654 92.232 100.994 92.005 C 109.016 86.902 107.797 97.702 115.224 95.208 C 113.126 94.301 113.013 94.868 111.227 93.252 C 110.263 92.402 109.498 91.268 108.676 90.02 C 104.282 83.331 102.241 81.545 93.964 85.995 C 86.82 89.85 72.449 91.183 64.342 91.211 C 60.657 91.239 56.887 91.069 53.23 90.786 C 49.97 90.531 45.548 89.794 42.742 89.794 C 53.769 93.847 76.361 93.082 89.06 89.227 C 93.737 87.838 97.762 85.712 103.205 87.158 C 101.249 89.51 93.425 91.92 89.372 92.912 C 76.729 96.002 57.794 95.86 45.123 92.628 C 44.698 92.543 38.858 90.417 41.466 92.345 C 47.561 96.852 77.92 100.197 96.402 94.357 C 96.77 94.216 97.167 94.102 97.564 93.961 C 98.726 93.564 98.896 93.507 99.86 92.798 L 99.86 92.798 Z " fill-rule="evenodd" fill="rgb(102,102,102)"/><path d=" M 64.947 59.497 C 64.408 58.533 64.911 58.206 65.988 58.121 C 68.426 57.922 74.747 58.149 77.044 58.404 C 77.497 60.955 73.614 60.558 72.395 61.409 C 73.699 62.032 75.286 61.664 76.392 62.571 C 75.881 64.187 73.103 64.669 70.921 64.669 C 68.284 64.697 66.612 64.243 64.94 63.11 C 64.996 61.267 65.45 61.721 66.584 60.955 C 67.83 60.394 66.934 61.799 64.947 59.497 L 64.947 59.497 Z  M 68.029 66.228 C 70.836 66.511 76.59 66.114 78.376 64.045 C 80.105 62.004 77.242 61.579 76.051 61.04 C 77.384 60.473 79.17 59.765 78.914 58.064 C 78.631 56.051 75.995 56.59 74.266 56.845 C 70.354 57.355 67.009 56.93 63.324 56.051 C 67.132 63.932 58.035 65.179 68.029 66.228 Z " fill-rule="evenodd" fill="rgb(102,102,102)"/><path d=" M 31.715 82.395 L 31.715 84.408 C 32.537 85.769 33.047 86.704 34.72 87.441 C 36.222 88.093 38.121 88.32 39.935 88.235 C 38.972 87.384 37.696 87.498 36.506 86.364 C 35.202 85.117 35.712 83.472 36.761 82.537 C 42.543 77.406 57.085 77.151 64.569 77.718 L 64.625 64.254 L 64.427 55.58 C 64.257 49.712 65.022 43.957 69.019 41.832 C 71.088 40.726 74.065 40.386 76.587 41.236 C 83.844 43.702 82.002 55.466 81.832 63.318 L 81.69 81.573 C 79.224 83.132 74.008 83.898 70.578 84.039 C 65.419 84.238 62.811 83.359 58.474 82.31 C 59.976 85.485 74.802 88.093 82.143 84.011 C 85.998 81.885 83.419 81.29 84.524 76.499 C 90.732 75.592 100.172 77.52 104.31 80.468 C 107.457 82.735 114.742 94.811 118.115 91.891 L 118.285 91.778 C 114.487 90.417 112.956 88.858 111.198 85.117 C 107.882 78.087 103.913 75.422 95.863 73.806 C 93.652 73.353 85.573 72.616 84.411 71.964 C 83.929 62.921 86.679 46.565 81.378 39.564 C 78.203 35.397 76.191 36.219 73.866 35 L 70.011 35 C 68.367 35.737 64.682 35.85 61.535 38.912 C 59.296 41.095 58.559 43.759 58.247 47.983 C 57.652 56.033 58.134 64.282 58.049 72.417 C 51.104 74.175 39.567 75.422 33.643 79.901 C 32.735 80.581 32.452 81.375 31.715 82.395 L 31.715 82.395 Z " fill-rule="evenodd" fill="rgb(255,7,58)"/><path d=" M 85.233 78.455 C 86.339 79.731 92.291 78.654 97.082 79.561 C 98.046 79.759 99.832 80.439 100.427 80.496 C 96.798 79.419 100.795 78.852 89.117 77.661 C 87.501 77.52 85.942 76.839 85.233 78.455 L 85.233 78.455 Z " fill-rule="evenodd" fill="rgb(255,7,58)"/><path d=" M 69.476 59.557 C 67.293 60.124 67.775 63.129 70.496 62.533 C 72.679 62.08 72.254 58.877 69.476 59.557 Z " fill-rule="evenodd" fill="rgb(102,102,102)"/></g><path d=" M 88.942 132.846 L 86.095 133.42 L 86.045 133.173 L 86.045 133.173 Q 86.681 133.045 86.739 132.788 L 86.739 132.788 L 85.546 126.871 L 85.546 126.871 Q 85.392 126.657 84.757 126.785 L 84.757 126.785 L 84.707 126.538 L 87.413 125.993 L 87.413 125.993 Q 88.977 125.677 90.121 126.432 L 90.121 126.432 L 90.121 126.432 Q 91.265 127.186 91.573 128.716 L 91.573 128.716 L 91.573 128.716 Q 91.882 130.245 91.147 131.397 L 91.147 131.397 L 91.147 131.397 Q 90.412 132.549 88.942 132.846 L 88.942 132.846 L 88.942 132.846 Z  M 87.481 126.334 L 86.599 126.512 L 87.838 132.652 L 88.861 132.446 L 88.861 132.446 Q 89.238 132.37 89.562 132.127 L 89.562 132.127 L 89.562 132.127 Q 89.886 131.884 90.147 131.476 L 90.147 131.476 L 90.147 131.476 Q 90.408 131.069 90.484 130.417 L 90.484 130.417 L 90.484 130.417 Q 90.561 129.765 90.399 128.965 L 90.399 128.965 L 90.399 128.965 Q 90.091 127.436 89.245 126.792 L 89.245 126.792 L 89.245 126.792 Q 88.399 126.149 87.481 126.334 L 87.481 126.334 L 87.481 126.334 Z  M 98.469 129.711 L 96.077 130.77 L 95.975 130.54 L 95.975 130.54 Q 96.568 130.277 96.569 130.014 L 96.569 130.014 L 94.126 124.495 L 94.126 124.495 Q 93.93 124.319 93.337 124.582 L 93.337 124.582 L 93.235 124.351 L 95.627 123.292 L 95.729 123.522 L 95.729 123.522 Q 95.137 123.785 95.135 124.048 L 95.135 124.048 L 96.218 126.495 L 99.027 125.251 L 97.944 122.804 L 97.944 122.804 Q 97.748 122.629 97.156 122.891 L 97.156 122.891 L 97.054 122.66 L 99.446 121.601 L 99.548 121.832 L 99.548 121.832 Q 98.955 122.094 98.954 122.357 L 98.954 122.357 L 101.397 127.877 L 101.397 127.877 Q 101.593 128.052 102.186 127.79 L 102.186 127.79 L 102.288 128.02 L 99.896 129.079 L 99.794 128.849 L 99.794 128.849 Q 100.386 128.587 100.388 128.323 L 100.388 128.323 L 99.193 125.624 L 96.384 126.868 L 97.579 129.567 L 97.579 129.567 Q 97.775 129.743 98.367 129.481 L 98.367 129.481 L 98.469 129.711 L 98.469 129.711 Z  M 110.876 122.584 L 108.698 124.054 L 108.557 123.845 L 108.557 123.845 Q 109.014 123.536 109.053 123.337 L 109.053 123.337 L 107.469 122.191 L 105.559 123.48 L 106.029 125.291 L 106.029 125.291 Q 106.249 125.403 106.767 125.054 L 106.767 125.054 L 106.908 125.263 L 105.276 126.364 L 105.135 126.155 L 105.135 126.155 Q 105.692 125.779 105.621 125.523 L 105.621 125.523 L 103.905 118.82 L 104.382 118.498 L 109.957 122.596 L 109.957 122.596 Q 110.168 122.758 110.735 122.375 L 110.735 122.375 L 110.876 122.584 L 110.876 122.584 Z  M 107.128 121.943 L 104.718 120.196 L 105.457 123.071 L 107.128 121.943 L 107.128 121.943 Z  M 115.493 118.734 L 113.616 120.556 L 113.44 120.375 L 113.44 120.375 Q 113.905 119.924 113.816 119.676 L 113.816 119.676 L 109.613 115.344 L 109.613 115.344 Q 109.368 115.247 108.903 115.698 L 108.903 115.698 L 108.727 115.517 L 110.674 113.629 L 110.674 113.629 Q 111.742 112.593 112.669 112.445 L 112.669 112.445 L 112.669 112.445 Q 113.596 112.298 114.081 112.798 L 114.081 112.798 L 114.081 112.798 Q 114.541 113.272 114.603 113.905 L 114.603 113.905 L 114.603 113.905 Q 114.666 114.538 114.265 115.245 L 114.265 115.245 L 117.399 116.183 L 117.399 116.183 Q 117.66 116.281 118.143 115.813 L 118.143 115.813 L 118.318 115.994 L 117.948 116.353 L 117.948 116.353 Q 117.345 116.938 117.097 117.044 L 117.097 117.044 L 117.097 117.044 Q 116.849 117.151 116.368 117.016 L 116.368 117.016 L 113.538 116.184 L 112.728 116.97 L 114.608 118.907 L 114.608 118.907 Q 114.853 119.005 115.318 118.553 L 115.318 118.553 L 115.493 118.734 L 115.493 118.734 Z  M 110.958 113.922 L 110.347 114.515 L 112.444 116.677 L 113.159 115.983 L 113.159 115.983 Q 113.848 115.315 113.847 114.797 L 113.847 114.797 L 113.847 114.797 Q 113.846 114.279 113.228 113.642 L 113.228 113.642 L 113.228 113.642 Q 112.769 113.168 112.229 113.19 L 112.229 113.19 L 112.229 113.19 Q 111.69 113.211 110.958 113.922 L 110.958 113.922 L 110.958 113.922 Z  M 122.234 111.571 L 122.234 111.571 L 122.234 111.571 Q 121.859 112.025 121.331 112.383 L 121.331 112.383 L 121.331 112.383 Q 120.803 112.74 120.787 112.759 L 120.787 112.759 L 120.787 112.759 Q 120.742 112.814 120.736 112.934 L 120.736 112.934 L 120.736 112.934 Q 120.731 113.054 120.805 113.115 L 120.805 113.115 L 120.629 113.328 L 119.342 112.266 L 119.51 112.063 L 119.51 112.063 Q 120.15 112.419 120.775 112.18 L 120.775 112.18 L 120.775 112.18 Q 121.4 111.941 121.873 111.367 L 121.873 111.367 L 121.873 111.367 Q 122.278 110.877 122.315 110.379 L 122.315 110.379 L 122.315 110.379 Q 122.353 109.881 121.908 109.514 L 121.908 109.514 L 121.908 109.514 Q 121.705 109.346 121.466 109.297 L 121.466 109.297 L 121.466 109.297 Q 121.226 109.247 120.934 109.309 L 120.934 109.309 L 120.934 109.309 Q 120.642 109.371 120.407 109.458 L 120.407 109.458 L 120.407 109.458 Q 120.172 109.544 119.811 109.69 L 119.811 109.69 L 119.811 109.69 Q 119.45 109.835 119.252 109.905 L 119.252 109.905 L 119.252 109.905 Q 118.781 110.061 118.545 110.131 L 118.545 110.131 L 118.545 110.131 Q 118.309 110.2 117.893 110.27 L 117.893 110.27 L 117.893 110.27 Q 117.478 110.34 117.155 110.26 L 117.155 110.26 L 117.155 110.26 Q 116.832 110.18 116.564 109.959 L 116.564 109.959 L 116.564 109.959 Q 116.018 109.508 115.986 108.642 L 115.986 108.642 L 115.986 108.642 Q 115.954 107.775 116.465 107.155 L 116.465 107.155 L 116.465 107.155 Q 116.687 106.887 117.154 106.603 L 117.154 106.603 L 117.154 106.603 Q 117.621 106.32 117.667 106.264 L 117.667 106.264 L 117.667 106.264 Q 117.759 106.153 117.573 106 L 117.573 106 L 117.749 105.787 L 119.001 106.665 L 118.833 106.868 L 118.833 106.868 Q 118.38 106.588 117.817 106.714 L 117.817 106.714 L 117.817 106.714 Q 117.253 106.841 116.788 107.405 L 116.788 107.405 L 116.788 107.405 Q 116.436 107.831 116.499 108.311 L 116.499 108.311 L 116.499 108.311 Q 116.562 108.791 116.84 109.02 L 116.84 109.02 L 116.84 109.02 Q 117.016 109.165 117.238 109.208 L 117.238 109.208 L 117.238 109.208 Q 117.459 109.25 117.734 109.182 L 117.734 109.182 L 117.734 109.182 Q 118.008 109.113 118.235 109.035 L 118.235 109.035 L 118.235 109.035 Q 118.462 108.958 118.819 108.809 L 118.819 108.809 L 118.819 108.809 Q 119.175 108.66 119.373 108.59 L 119.373 108.59 L 119.373 108.59 Q 119.918 108.401 120.166 108.326 L 120.166 108.326 L 120.166 108.326 Q 120.415 108.251 120.864 108.178 L 120.864 108.178 L 120.864 108.178 Q 121.313 108.105 121.646 108.201 L 121.646 108.201 L 121.646 108.201 Q 121.979 108.297 122.275 108.541 L 122.275 108.541 L 122.275 108.541 Q 122.96 109.106 122.891 109.983 L 122.891 109.983 L 122.891 109.983 Q 122.822 110.859 122.234 111.571 Z  M 127.079 104.146 L 125.831 106.445 L 125.609 106.325 L 125.609 106.325 Q 125.919 105.756 125.759 105.546 L 125.759 105.546 L 120.455 102.666 L 120.455 102.666 Q 120.192 102.646 119.883 103.216 L 119.883 103.216 L 119.662 103.095 L 120.91 100.796 L 121.132 100.917 L 121.132 100.917 Q 120.822 101.486 120.982 101.696 L 120.982 101.696 L 123.333 102.973 L 124.799 100.273 L 122.448 98.996 L 122.448 98.996 Q 122.185 98.976 121.876 99.546 L 121.876 99.546 L 121.655 99.426 L 122.903 97.127 L 123.124 97.247 L 123.124 97.247 Q 122.815 97.816 122.975 98.026 L 122.975 98.026 L 128.279 100.906 L 128.279 100.906 Q 128.541 100.926 128.851 100.356 L 128.851 100.356 L 129.072 100.477 L 127.824 102.776 L 127.602 102.655 L 127.602 102.655 Q 127.912 102.086 127.752 101.876 L 127.752 101.876 L 125.158 100.468 L 123.692 103.167 L 126.286 104.576 L 126.286 104.576 Q 126.549 104.596 126.858 104.026 L 126.858 104.026 L 127.079 104.146 L 127.079 104.146 Z  M 132.62 90.966 L 131.846 93.477 L 131.605 93.403 L 131.605 93.403 Q 131.768 92.876 131.672 92.696 L 131.672 92.696 L 129.72 92.797 L 129.041 94.998 L 130.543 96.114 L 130.543 96.114 Q 130.784 96.063 130.968 95.467 L 130.968 95.467 L 131.209 95.541 L 130.629 97.422 L 130.388 97.348 L 130.388 97.348 Q 130.586 96.706 130.37 96.551 L 130.37 96.551 L 124.83 92.406 L 125 91.856 L 131.912 91.551 L 131.912 91.551 Q 132.178 91.545 132.379 90.892 L 132.379 90.892 L 132.62 90.966 L 132.62 90.966 Z  M 129.299 92.817 L 126.327 92.968 L 128.705 94.744 L 129.299 92.817 L 129.299 92.817 Z  M 133.838 85.797 L 133.458 87.679 L 133.211 87.629 L 133.211 87.629 Q 133.339 86.994 133.125 86.841 L 133.125 86.841 L 127.209 85.646 L 127.209 85.646 Q 126.952 85.704 126.824 86.339 L 126.824 86.339 L 126.577 86.29 L 126.895 84.713 L 132.492 81.792 L 128.164 80.917 L 128.164 80.917 Q 127.907 80.976 127.779 81.611 L 127.779 81.611 L 127.532 81.561 L 127.912 79.679 L 128.159 79.729 L 128.159 79.729 Q 128.031 80.364 128.245 80.517 L 128.245 80.517 L 134.643 81.81 L 134.622 81.916 L 127.842 85.358 L 133.206 86.441 L 133.206 86.441 Q 133.463 86.383 133.591 85.747 L 133.591 85.747 L 133.838 85.797 L 133.838 85.797 Z  M 15.438 81.901 L 15.249 79.991 L 15.499 79.966 L 15.499 79.966 Q 15.563 80.61 15.813 80.694 L 15.813 80.694 L 21.819 80.098 L 21.819 80.098 Q 22.048 79.967 21.984 79.322 L 21.984 79.322 L 22.234 79.297 L 22.393 80.897 L 17.902 85.335 L 22.296 84.898 L 22.296 84.898 Q 22.524 84.767 22.46 84.122 L 22.46 84.122 L 22.711 84.097 L 22.901 86.008 L 22.65 86.033 L 22.65 86.033 Q 22.586 85.388 22.336 85.304 L 22.336 85.304 L 15.84 85.949 L 15.83 85.842 L 21.298 80.56 L 15.853 81.1 L 15.853 81.1 Q 15.625 81.231 15.689 81.876 L 15.689 81.876 L 15.438 81.901 L 15.438 81.901 Z  M 18.934 96.33 L 18.16 93.819 L 18.401 93.745 L 18.401 93.745 Q 18.564 94.272 18.744 94.367 L 18.744 94.367 L 20.3 93.184 L 19.621 90.982 L 17.752 90.906 L 17.752 90.906 Q 17.581 91.084 17.764 91.681 L 17.764 91.681 L 17.524 91.755 L 16.944 89.874 L 17.185 89.8 L 17.185 89.8 Q 17.383 90.442 17.648 90.448 L 17.648 90.448 L 24.561 90.753 L 24.731 91.303 L 19.19 95.448 L 19.19 95.448 Q 18.974 95.602 19.175 96.256 L 19.175 96.256 L 18.934 96.33 L 18.934 96.33 Z  M 20.636 92.93 L 23.007 91.131 L 20.042 91.003 L 20.636 92.93 L 20.636 92.93 Z  M 21.193 101.149 L 20.277 99.462 L 20.499 99.342 L 20.499 99.342 Q 20.808 99.911 21.07 99.892 L 21.07 99.892 L 26.375 97.011 L 26.375 97.011 Q 26.534 96.802 26.225 96.232 L 26.225 96.232 L 26.446 96.112 L 27.282 97.652 L 23.598 102.561 L 29.722 102.144 L 30.569 103.705 L 30.348 103.825 L 30.348 103.825 Q 30.039 103.256 29.776 103.275 L 29.776 103.275 L 24.472 106.156 L 24.472 106.156 Q 24.312 106.365 24.622 106.935 L 24.622 106.935 L 24.4 107.055 L 23.152 104.756 L 23.373 104.636 L 23.373 104.636 Q 23.683 105.205 23.945 105.185 L 23.945 105.185 L 28.68 102.614 L 22.23 103.058 L 22.144 102.9 L 26.063 97.645 L 21.265 100.25 L 21.265 100.25 Q 21.106 100.46 21.415 101.029 L 21.415 101.029 L 21.193 101.149 L 21.193 101.149 Z  M 30.329 108.952 L 30.329 108.952 L 30.329 108.952 Q 29.718 109.456 29.299 110.09 L 29.299 110.09 L 29.299 110.09 Q 28.88 110.723 28.793 111.456 L 28.793 111.456 L 28.793 111.456 Q 28.705 112.189 29.156 112.735 L 29.156 112.735 L 29.156 112.735 Q 29.606 113.282 30.304 113.336 L 30.304 113.336 L 30.304 113.336 Q 31.002 113.39 31.651 113.111 L 31.651 113.111 L 31.651 113.111 Q 32.3 112.832 32.884 112.351 L 32.884 112.351 L 32.884 112.351 Q 33.485 111.855 33.91 111.209 L 33.91 111.209 L 33.91 111.209 Q 34.334 110.564 34.421 109.831 L 34.421 109.831 L 34.421 109.831 Q 34.509 109.097 34.066 108.561 L 34.066 108.561 L 34.066 108.561 Q 33.722 108.144 33.236 108.008 L 33.236 108.008 L 33.236 108.008 Q 32.751 107.872 32.236 107.993 L 32.236 107.993 L 32.236 107.993 Q 31.722 108.114 31.238 108.358 L 31.238 108.358 L 31.238 108.358 Q 30.754 108.601 30.329 108.952 Z  M 29.491 108.088 L 29.491 108.088 L 29.491 108.088 Q 30.648 107.133 32.067 107.176 L 32.067 107.176 L 32.067 107.176 Q 33.487 107.218 34.411 108.338 L 34.411 108.338 L 34.411 108.338 Q 35.335 109.458 35.107 110.86 L 35.107 110.86 L 35.107 110.86 Q 34.878 112.261 33.721 113.216 L 33.721 113.216 L 33.721 113.216 Q 32.564 114.17 31.146 114.12 L 31.146 114.12 L 31.146 114.12 Q 29.727 114.069 28.811 112.958 L 28.811 112.958 L 28.811 112.958 Q 27.879 111.829 28.102 110.439 L 28.102 110.439 L 28.102 110.439 Q 28.324 109.05 29.491 108.088 Z  M 41.026 115.498 L 41.026 115.498 L 41.026 115.498 Q 40.23 114.842 39.041 115.113 L 39.041 115.113 L 39.041 115.113 Q 37.852 115.384 36.981 116.439 L 36.981 116.439 L 36.981 116.439 Q 36.454 117.078 36.216 117.706 L 36.216 117.706 L 36.216 117.706 Q 35.978 118.334 36.03 118.836 L 36.03 118.836 L 36.03 118.836 Q 36.082 119.338 36.281 119.72 L 36.281 119.72 L 36.281 119.72 Q 36.479 120.102 36.794 120.361 L 36.794 120.361 L 36.794 120.361 Q 37.312 120.789 37.92 120.995 L 37.92 120.995 L 39.486 119.098 L 39.486 119.098 Q 39.556 118.844 39.056 118.432 L 39.056 118.432 L 39.216 118.237 L 41.234 119.902 L 41.073 120.097 L 41.073 120.097 Q 40.574 119.684 40.337 119.801 L 40.337 119.801 L 39.054 121.355 L 39.054 121.355 Q 38.652 121.522 37.954 121.397 L 37.954 121.397 L 37.954 121.397 Q 37.256 121.272 36.516 120.661 L 36.516 120.661 L 36.516 120.661 Q 35.276 119.637 35.181 118.206 L 35.181 118.206 L 35.181 118.206 Q 35.087 116.774 36.004 115.663 L 36.004 115.663 L 36.004 115.663 Q 37.065 114.377 38.592 114.299 L 38.592 114.299 L 38.592 114.299 Q 40.119 114.221 41.276 115.176 L 41.276 115.176 L 41.276 115.176 Q 41.544 115.398 41.828 115.865 L 41.828 115.865 L 41.828 115.865 Q 42.111 116.332 42.167 116.378 L 42.167 116.378 L 42.167 116.378 Q 42.278 116.47 42.43 116.285 L 42.43 116.285 L 42.643 116.46 L 41.766 117.712 L 41.562 117.544 L 41.562 117.544 Q 41.843 117.091 41.716 116.528 L 41.716 116.528 L 41.716 116.528 Q 41.59 115.964 41.026 115.498 Z  M 47.388 127.764 L 45.079 126.511 L 45.199 126.289 L 45.199 126.289 Q 45.684 126.553 45.879 126.495 L 45.879 126.495 L 46.165 124.56 L 44.14 123.461 L 42.75 124.714 L 42.75 124.714 Q 42.752 124.961 43.301 125.259 L 43.301 125.259 L 43.18 125.48 L 41.451 124.541 L 41.571 124.32 L 41.571 124.32 Q 42.162 124.64 42.356 124.459 L 42.356 124.459 L 47.51 119.843 L 48.017 120.118 L 46.954 126.955 L 46.954 126.955 Q 46.907 127.217 47.508 127.543 L 47.508 127.543 L 47.388 127.764 L 47.388 127.764 Z  M 46.227 124.144 L 46.665 121.2 L 44.455 123.182 L 46.227 124.144 L 46.227 124.144 Z  M 52.194 130.025 L 50.413 129.308 L 50.507 129.074 L 50.507 129.074 Q 51.108 129.316 51.298 129.134 L 51.298 129.134 L 53.552 123.535 L 53.552 123.535 Q 53.542 123.272 52.941 123.03 L 52.941 123.03 L 53.035 122.796 L 54.526 123.397 L 56.378 129.433 L 58.027 125.336 L 58.027 125.336 Q 58.017 125.073 57.416 124.831 L 57.416 124.831 L 57.51 124.598 L 59.291 125.315 L 59.197 125.548 L 59.197 125.548 Q 58.596 125.306 58.406 125.489 L 58.406 125.489 L 55.968 131.544 L 55.868 131.504 L 53.72 124.21 L 51.677 129.287 L 51.677 129.287 Q 51.687 129.549 52.288 129.791 L 52.288 129.791 L 52.194 130.025 L 52.194 130.025 Z  M 65.474 126.889 L 65.474 126.889 L 65.474 126.889 Q 64.463 126.685 63.543 127.484 L 63.543 127.484 L 63.543 127.484 Q 62.622 128.284 62.352 129.625 L 62.352 129.625 L 62.352 129.625 Q 62.188 130.437 62.274 131.103 L 62.274 131.103 L 62.274 131.103 Q 62.36 131.769 62.643 132.187 L 62.643 132.187 L 62.643 132.187 Q 62.926 132.606 63.281 132.849 L 63.281 132.849 L 63.281 132.849 Q 63.636 133.092 64.036 133.172 L 64.036 133.172 L 64.036 133.172 Q 64.695 133.305 65.328 133.2 L 65.328 133.2 L 65.814 130.789 L 65.814 130.789 Q 65.756 130.532 65.121 130.404 L 65.121 130.404 L 65.17 130.157 L 67.735 130.674 L 67.685 130.921 L 67.685 130.921 Q 67.05 130.793 66.896 131.007 L 66.896 131.007 L 66.498 132.983 L 66.498 132.983 Q 66.222 133.319 65.547 133.538 L 65.547 133.538 L 65.547 133.538 Q 64.873 133.757 63.932 133.567 L 63.932 133.567 L 63.932 133.567 Q 62.355 133.25 61.597 132.032 L 61.597 132.032 L 61.597 132.032 Q 60.839 130.814 61.124 129.402 L 61.124 129.402 L 61.124 129.402 Q 61.453 127.767 62.763 126.978 L 62.763 126.978 L 62.763 126.978 Q 64.073 126.19 65.543 126.486 L 65.543 126.486 L 65.543 126.486 Q 65.885 126.555 66.355 126.834 L 66.355 126.834 L 66.355 126.834 Q 66.825 127.112 66.896 127.126 L 66.896 127.126 L 66.896 127.126 Q 67.037 127.155 67.084 126.919 L 67.084 126.919 L 67.355 126.974 L 67.171 128.492 L 66.912 128.439 L 66.912 128.439 Q 66.946 127.908 66.569 127.47 L 66.569 127.47 L 66.569 127.47 Q 66.192 127.033 65.474 126.889 Z  M 76.893 134.528 L 74.265 134.487 L 74.269 134.235 L 74.269 134.235 Q 74.821 134.244 74.967 134.102 L 74.967 134.102 L 74.324 132.256 L 72.02 132.22 L 71.369 133.974 L 71.369 133.974 Q 71.485 134.192 72.109 134.202 L 72.109 134.202 L 72.105 134.454 L 70.137 134.423 L 70.141 134.171 L 70.141 134.171 Q 70.813 134.182 70.901 133.931 L 70.901 133.931 L 73.33 127.452 L 73.906 127.461 L 76.133 134.012 L 76.133 134.012 Q 76.213 134.266 76.897 134.276 L 76.897 134.276 L 76.893 134.528 L 76.893 134.528 Z  M 74.186 131.858 L 73.209 129.046 L 72.17 131.827 L 74.186 131.858 L 74.186 131.858 Z " fill="rgb(0,0,0)"/></g></g></svg>