<?xml version="1.0" encoding="UTF-8" standalone="no"?><!-- Generator: Gravit.io --><svg xmlns="http://www.w3.org/2000/svg" xmlns:xlink="http://www.w3.org/1999/xlink" style="isolation:isolate" viewBox="0 0 150 150" width="150pt" height="150pt"><defs><clipPath id="_clipPath_Oc2UxWO9ezu6vnDr1rBrQOolyJAO1Bd1"><rect width="150" height="150"/></clipPath></defs><g clip-path="url(#_clipPath_Oc2UxWO9ezu6vnDr1rBrQOolyJAO1Bd1)"><g><circle vector-effect="non-scaling-stroke" cx="75" cy="75" r="62.5" fill="none" stroke-width="2" stroke="rgb(102,102,102)" stroke-linejoin="miter" stroke-linecap="square" stroke-miterlimit="3"/><g><path d=" M 99.86 92.798 C 100.257 92.487 100.654 92.232 100.994 92.005 C 109.016 86.902 107.797 97.702 115.224 95.208 C 113.126 94.301 113.013 94.868 111.227 93.252 C 110.263 92.402 109.498 91.268 108.676 90.02 C 104.282 83.331 102.241 81.545 93.964 85.995 C 86.82 89.85 72.449 91.183 64.342 91.211 C 60.657 91.239 56.887 91.069 53.23 90.786 C 49.97 90.531 45.548 89.794 42.742 89.794 C 53.769 93.847 76.361 93.082 89.06 89.227 C 93.737 87.838 97.762 85.712 103.205 87.158 C 101.249 89.51 93.425 91.92 89.372 92.912 C 76.729 96.002 57.794 95.86 45.123 92.628 C 44.698 92.543 38.858 90.417 41.466 92.345 C 47.561 96.852 77.92 100.197 96.402 94.357 C 96.77 94.216 97.167 94.102 97.564 93.961 C 98.726 93.564 98.896 93.507 99.86 92.798 L 99.86 92.798 Z " fill-rule="evenodd" fill="rgb(102,102,102)"/><path d=" M 64.947 59.497 C 64.408 58.533 64.911 58.206 65.988 58.121 C 68.426 57.922 74.747 58.149 77.044 58.404 C 77.497 60.955 73.614 60.558 72.395 61.409 C 73.699 62.032 75.286 61.664 76.392 62.571 C 75.881 64.187 73.103 64.669 70.921 64.669 C 68.284 64.697 66.612 64.243 64.94 63.11 C 64.996 61.267 65.45 61.721 66.584 60.955 C 67.83 60.394 66.934 61.799 64.947 59.497 L 64.947 59.497 Z  M 68.029 66.228 C 70.836 66.511 76.59 66.114 78.376 64.045 C 80.105 62.004 77.242 61.579 76.051 61.04 C 77.384 60.473 79.17 59.765 78.914 58.064 C 78.631 56.051 75.995 56.59 74.266 56.845 C 70.354 57.355 67.009 56.93 63.324 56.051 C 67.132 63.932 58.035 65.179 68.029 66.228 Z " fill-rule="evenodd" fill="rgb(102,102,102)"/><path d=" M 31.715 82.395 L 31.715 84.408 C 32.537 85.769 33.047 86.704 34.72 87.441 C 36.222 88.093 38.121 88.32 39.935 88.235 C 38.972 87.384 37.696 87.498 36.506 86.364 C 35.202 85.117 35.712 83.472 36.761 82.537 C 42.543 77.406 57.085 77.151 64.569 77.718 L 64.625 64.254 L 64.427 55.58 C 64.257 49.712 65.022 43.957 69.019 41.832 C 71.088 40.726 74.065 40.386 76.587 41.236 C 83.844 43.702 82.002 55.466 81.832 63.318 L 81.69 81.573 C 79.224 83.132 74.008 83.898 70.578 84.039 C 65.419 84.238 62.811 83.359 58.474 82.31 C 59.976 85.485 74.802 88.093 82.143 84.011 C 85.998 81.885 83.419 81.29 84.524 76.499 C 90.732 75.592 100.172 77.52 104.31 80.468 C 107.457 82.735 114.742 94.811 118.115 91.891 L 118.285 91.778 C 114.487 90.417 112.956 88.858 111.198 85.117 C 107.882 78.087 103.913 75.422 95.863 73.806 C 93.652 73.353 85.573 72.616 84.411 71.964 C 83.929 62.921 86.679 46.565 81.378 39.564 C 78.203 35.397 76.191 36.219 73.866 35 L 70.011 35 C 68.367 35.737 64.682 35.85 61.535 38.912 C 59.296 41.095 58.559 43.759 58.247 47.983 C 57.652 56.033 58.134 64.282 58.049 72.417 C 51.104 74.175 39.567 75.422 33.643 79.901 C 32.735 80.581 32.452 81.375 31.715 82.395 L 31.715 82.395 Z " fill-rule="evenodd" fill="rgb(255,7,58)"/><path d=" M 85.233 78.455 C 86.339 79.731 92.291 78.654 97.082 79.561 C 98.046 79.759 99.832 80.439 100.427 80.496 C 96.798 79.419 100.795 78.852 89.117 77.661 C 87.501 77.52 85.942 76.839 85.233 78.455 L 85.233 78.455 Z " fill-rule="evenodd" fill="rgb(255,7,58)"/><path d=" M 69.476 59.557 C 67.293 60.124 67.775 63.129 70.496 62.533 C 72.679 62.08 72.254 58.877 69.476 59.557 Z " fill-rule="evenodd" fill="rgb(102,102,102)"/></g><path d=" M 91.839 132.044 L 89.064 132.899 L 88.989 132.659 L 88.989 132.659 Q 89.609 132.468 89.641 132.206 L 89.641 132.206 L 87.863 126.438 L 87.863 126.438 Q 87.689 126.241 87.07 126.432 L 87.07 126.432 L 86.995 126.191 L 89.633 125.378 L 89.633 125.378 Q 91.158 124.908 92.371 125.544 L 92.371 125.544 L 92.371 125.544 Q 93.585 126.181 94.044 127.672 L 94.044 127.672 L 94.044 127.672 Q 94.504 129.162 93.888 130.382 L 93.888 130.382 L 93.888 130.382 Q 93.272 131.602 91.839 132.044 L 91.839 132.044 L 91.839 132.044 Z  M 89.735 125.71 L 88.875 125.976 L 90.721 131.961 L 91.719 131.654 L 91.719 131.654 Q 92.086 131.541 92.384 131.267 L 92.384 131.267 L 92.384 131.267 Q 92.682 130.992 92.901 130.561 L 92.901 130.561 L 92.901 130.561 Q 93.12 130.129 93.131 129.473 L 93.131 129.473 L 93.131 129.473 Q 93.142 128.817 92.901 128.037 L 92.901 128.037 L 92.901 128.037 Q 92.442 126.546 91.536 125.99 L 91.536 125.99 L 91.536 125.99 Q 90.63 125.435 89.735 125.71 L 89.735 125.71 L 89.735 125.71 Z  M 101.21 128.473 L 98.911 129.721 L 98.791 129.5 L 98.791 129.5 Q 99.36 129.19 99.341 128.928 L 99.341 128.928 L 96.46 123.624 L 96.46 123.624 Q 96.251 123.464 95.681 123.773 L 95.681 123.773 L 95.561 123.552 L 97.86 122.304 L 97.98 122.525 L 97.98 122.525 Q 97.411 122.834 97.431 123.097 L 97.431 123.097 L 98.708 125.448 L 101.407 123.982 L 100.13 121.631 L 100.13 121.631 Q 99.921 121.471 99.351 121.781 L 99.351 121.781 L 99.231 121.559 L 101.53 120.311 L 101.65 120.532 L 101.65 120.532 Q 101.081 120.841 101.1 121.104 L 101.1 121.104 L 103.981 126.408 L 103.981 126.408 Q 104.19 126.568 104.76 126.258 L 104.76 126.258 L 104.88 126.48 L 102.581 127.728 L 102.461 127.507 L 102.461 127.507 Q 103.03 127.198 103.011 126.935 L 103.011 126.935 L 101.602 124.341 L 98.902 125.807 L 100.311 128.401 L 100.311 128.401 Q 100.52 128.56 101.09 128.251 L 101.09 128.251 L 101.21 128.473 L 101.21 128.473 Z  M 113.371 120.903 L 111.192 122.372 L 111.051 122.164 L 111.051 122.164 Q 111.509 121.855 111.548 121.655 L 111.548 121.655 L 109.964 120.509 L 108.054 121.798 L 108.523 123.609 L 108.523 123.609 Q 108.743 123.721 109.261 123.372 L 109.261 123.372 L 109.402 123.581 L 107.77 124.681 L 107.629 124.473 L 107.629 124.473 Q 108.186 124.097 108.115 123.841 L 108.115 123.841 L 106.4 117.137 L 106.878 116.815 L 112.452 120.914 L 112.452 120.914 Q 112.663 121.076 113.23 120.694 L 113.23 120.694 L 113.371 120.903 L 113.371 120.903 Z  M 109.623 120.261 L 107.213 118.514 L 107.952 121.389 L 109.623 120.261 L 109.623 120.261 Z  M 117.646 116.634 L 115.826 118.513 L 115.645 118.338 L 115.645 118.338 Q 116.096 117.872 115.998 117.628 L 115.998 117.628 L 111.662 113.429 L 111.662 113.429 Q 111.415 113.339 110.964 113.805 L 110.964 113.805 L 110.783 113.63 L 112.67 111.681 L 112.67 111.681 Q 113.705 110.612 114.627 110.436 L 114.627 110.436 L 114.627 110.436 Q 115.549 110.26 116.049 110.744 L 116.049 110.744 L 116.049 110.744 Q 116.523 111.203 116.605 111.834 L 116.605 111.834 L 116.605 111.834 Q 116.688 112.465 116.309 113.184 L 116.309 113.184 L 119.471 114.024 L 119.471 114.024 Q 119.735 114.114 120.203 113.631 L 120.203 113.631 L 120.384 113.806 L 120.025 114.177 L 120.025 114.177 Q 119.441 114.78 119.196 114.894 L 119.196 114.894 L 119.196 114.894 Q 118.952 115.009 118.466 114.889 L 118.466 114.889 L 115.611 114.146 L 114.827 114.956 L 116.766 116.834 L 116.766 116.834 Q 117.014 116.924 117.465 116.458 L 117.465 116.458 L 117.646 116.634 L 117.646 116.634 Z  M 112.963 111.965 L 112.37 112.577 L 114.534 114.672 L 115.227 113.957 L 115.227 113.957 Q 115.894 113.267 115.878 112.75 L 115.878 112.75 L 115.878 112.75 Q 115.861 112.232 115.223 111.615 L 115.223 111.615 L 115.223 111.615 Q 114.749 111.156 114.21 111.194 L 114.21 111.194 L 114.21 111.194 Q 113.672 111.232 112.963 111.965 L 112.963 111.965 L 112.963 111.965 Z  M 124.033 109.151 L 124.033 109.151 L 124.033 109.151 Q 123.704 109.639 123.213 110.045 L 123.213 110.045 L 123.213 110.045 Q 122.721 110.452 122.708 110.472 L 122.708 110.472 L 122.708 110.472 Q 122.668 110.532 122.674 110.652 L 122.674 110.652 L 122.674 110.652 Q 122.68 110.771 122.759 110.825 L 122.759 110.825 L 122.605 111.054 L 121.222 110.121 L 121.37 109.902 L 121.37 109.902 Q 122.04 110.196 122.639 109.898 L 122.639 109.898 L 122.639 109.898 Q 123.238 109.6 123.654 108.983 L 123.654 108.983 L 123.654 108.983 Q 124.01 108.455 123.999 107.956 L 123.999 107.956 L 123.999 107.956 Q 123.989 107.457 123.511 107.135 L 123.511 107.135 L 123.511 107.135 Q 123.292 106.987 123.049 106.961 L 123.049 106.961 L 123.049 106.961 Q 122.807 106.935 122.522 107.025 L 122.522 107.025 L 122.522 107.025 Q 122.236 107.115 122.011 107.223 L 122.011 107.223 L 122.011 107.223 Q 121.786 107.332 121.441 107.512 L 121.441 107.512 L 121.441 107.512 Q 121.095 107.691 120.905 107.78 L 120.905 107.78 L 120.905 107.78 Q 120.451 107.981 120.223 108.073 L 120.223 108.073 L 120.223 108.073 Q 119.994 108.165 119.588 108.274 L 119.588 108.274 L 119.588 108.274 Q 119.181 108.383 118.852 108.335 L 118.852 108.335 L 118.852 108.335 Q 118.523 108.286 118.234 108.092 L 118.234 108.092 L 118.234 108.092 Q 117.647 107.696 117.532 106.837 L 117.532 106.837 L 117.532 106.837 Q 117.417 105.977 117.866 105.311 L 117.866 105.311 L 117.866 105.311 Q 118.061 105.022 118.498 104.695 L 118.498 104.695 L 118.498 104.695 Q 118.936 104.368 118.976 104.308 L 118.976 104.308 L 118.976 104.308 Q 119.057 104.189 118.858 104.055 L 118.858 104.055 L 119.012 103.826 L 120.343 104.579 L 120.195 104.797 L 120.195 104.797 Q 119.717 104.562 119.169 104.742 L 119.169 104.742 L 119.169 104.742 Q 118.62 104.922 118.211 105.529 L 118.211 105.529 L 118.211 105.529 Q 117.902 105.987 118.011 106.458 L 118.011 106.458 L 118.011 106.458 Q 118.12 106.93 118.419 107.131 L 118.419 107.131 L 118.419 107.131 Q 118.608 107.259 118.832 107.28 L 118.832 107.28 L 118.832 107.28 Q 119.057 107.301 119.324 107.206 L 119.324 107.206 L 119.324 107.206 Q 119.591 107.111 119.809 107.012 L 119.809 107.012 L 119.809 107.012 Q 120.028 106.913 120.368 106.73 L 120.368 106.73 L 120.368 106.73 Q 120.708 106.547 120.899 106.459 L 120.899 106.459 L 120.899 106.459 Q 121.422 106.218 121.663 106.12 L 121.663 106.12 L 121.663 106.12 Q 121.903 106.021 122.343 105.905 L 122.343 105.905 L 122.343 105.905 Q 122.783 105.79 123.123 105.853 L 123.123 105.853 L 123.123 105.853 Q 123.464 105.916 123.783 106.131 L 123.783 106.131 L 123.783 106.131 Q 124.519 106.628 124.534 107.506 L 124.534 107.506 L 124.534 107.506 Q 124.55 108.385 124.033 109.151 Z  M 128.511 101.501 L 127.263 103.8 L 127.041 103.679 L 127.041 103.679 Q 127.35 103.11 127.191 102.901 L 127.191 102.901 L 121.887 100.021 L 121.887 100.021 Q 121.624 100.001 121.315 100.57 L 121.315 100.57 L 121.093 100.45 L 122.342 98.151 L 122.563 98.271 L 122.563 98.271 Q 122.254 98.841 122.413 99.05 L 122.413 99.05 L 124.765 100.327 L 126.231 97.627 L 123.879 96.351 L 123.879 96.351 Q 123.617 96.331 123.307 96.9 L 123.307 96.9 L 123.086 96.78 L 124.334 94.481 L 124.556 94.601 L 124.556 94.601 Q 124.246 95.171 124.406 95.38 L 124.406 95.38 L 129.71 98.26 L 129.71 98.26 Q 129.973 98.28 130.282 97.71 L 130.282 97.71 L 130.504 97.831 L 129.255 100.13 L 129.034 100.01 L 129.034 100.01 Q 129.343 99.44 129.184 99.231 L 129.184 99.231 L 126.589 97.822 L 125.124 100.522 L 127.718 101.93 L 127.718 101.93 Q 127.98 101.95 128.29 101.38 L 128.29 101.38 L 128.511 101.501 L 128.511 101.501 Z  M 133.505 88.09 L 132.73 90.601 L 132.489 90.527 L 132.489 90.527 Q 132.652 89.999 132.557 89.819 L 132.557 89.819 L 130.604 89.919 L 129.924 92.121 L 131.426 93.238 L 131.426 93.238 Q 131.667 93.187 131.851 92.59 L 131.851 92.59 L 132.092 92.665 L 131.512 94.545 L 131.271 94.471 L 131.271 94.471 Q 131.469 93.829 131.253 93.674 L 131.253 93.674 L 125.714 89.527 L 125.884 88.977 L 132.797 88.675 L 132.797 88.675 Q 133.062 88.669 133.264 88.016 L 133.264 88.016 L 133.505 88.09 L 133.505 88.09 Z  M 130.183 89.94 L 127.211 90.09 L 129.588 91.866 L 130.183 89.94 L 130.183 89.94 Z  M 134.371 82.838 L 134.18 84.748 L 133.929 84.723 L 133.929 84.723 Q 133.994 84.079 133.765 83.947 L 133.765 83.947 L 127.759 83.348 L 127.759 83.348 Q 127.51 83.432 127.445 84.077 L 127.445 84.077 L 127.195 84.052 L 127.354 82.452 L 132.632 78.986 L 128.238 78.548 L 128.238 78.548 Q 127.989 78.632 127.924 79.276 L 127.924 79.276 L 127.674 79.251 L 127.864 77.341 L 128.115 77.366 L 128.115 77.366 Q 128.051 78.011 128.279 78.142 L 128.279 78.142 L 134.774 78.79 L 134.764 78.898 L 128.361 82.998 L 133.806 83.541 L 133.806 83.541 Q 134.056 83.458 134.12 82.813 L 134.12 82.813 L 134.371 82.838 L 134.371 82.838 Z  M 43.344 117.415 L 43.344 117.415 L 43.344 117.415 Q 42.548 116.758 41.359 117.03 L 41.359 117.03 L 41.359 117.03 Q 40.17 117.301 39.3 118.357 L 39.3 118.357 L 39.3 118.357 Q 38.773 118.995 38.535 119.624 L 38.535 119.624 L 38.535 119.624 Q 38.297 120.252 38.349 120.754 L 38.349 120.754 L 38.349 120.754 Q 38.402 121.256 38.6 121.638 L 38.6 121.638 L 38.6 121.638 Q 38.799 122.019 39.114 122.279 L 39.114 122.279 L 39.114 122.279 Q 39.632 122.706 40.24 122.912 L 40.24 122.912 L 41.805 121.015 L 41.805 121.015 Q 41.875 120.761 41.375 120.348 L 41.375 120.348 L 41.535 120.154 L 43.553 121.819 L 43.393 122.013 L 43.393 122.013 Q 42.893 121.601 42.657 121.717 L 42.657 121.717 L 41.374 123.272 L 41.374 123.272 Q 40.972 123.439 40.274 123.314 L 40.274 123.314 L 40.274 123.314 Q 39.576 123.189 38.835 122.578 L 38.835 122.578 L 38.835 122.578 Q 37.595 121.555 37.5 120.123 L 37.5 120.123 L 37.5 120.123 Q 37.405 118.692 38.322 117.581 L 38.322 117.581 L 38.322 117.581 Q 39.383 116.294 40.91 116.216 L 40.91 116.216 L 40.91 116.216 Q 42.437 116.138 43.594 117.092 L 43.594 117.092 L 43.594 117.092 Q 43.862 117.314 44.146 117.781 L 44.146 117.781 L 44.146 117.781 Q 44.429 118.248 44.485 118.294 L 44.485 118.294 L 44.485 118.294 Q 44.596 118.385 44.749 118.2 L 44.749 118.2 L 44.962 118.376 L 44.085 119.628 L 43.881 119.46 L 43.881 119.46 Q 44.161 119.007 44.035 118.444 L 44.035 118.444 L 44.035 118.444 Q 43.908 117.88 43.344 117.415 Z  M 50.034 129.199 L 47.724 127.946 L 47.844 127.724 L 47.844 127.724 Q 48.329 127.987 48.524 127.929 L 48.524 127.929 L 48.809 125.995 L 46.784 124.896 L 45.395 126.149 L 45.395 126.149 Q 45.397 126.396 45.945 126.694 L 45.945 126.694 L 45.825 126.915 L 44.096 125.977 L 44.216 125.755 L 44.216 125.755 Q 44.806 126.076 45 125.894 L 45 125.894 L 50.154 121.277 L 50.66 121.552 L 49.599 128.39 L 49.599 128.39 Q 49.553 128.651 50.154 128.977 L 50.154 128.977 L 50.034 129.199 L 50.034 129.199 Z  M 48.872 125.578 L 49.309 122.634 L 47.1 124.617 L 48.872 125.578 L 48.872 125.578 Z  M 55.004 131.099 L 53.169 130.533 L 53.243 130.292 L 53.243 130.292 Q 53.863 130.483 54.037 130.286 L 54.037 130.286 L 55.816 124.518 L 55.816 124.518 Q 55.784 124.257 55.165 124.066 L 55.165 124.066 L 55.239 123.825 L 56.775 124.299 L 59.124 130.16 L 60.426 125.941 L 60.426 125.941 Q 60.393 125.68 59.774 125.488 L 59.774 125.488 L 59.848 125.248 L 61.683 125.814 L 61.609 126.055 L 61.609 126.055 Q 60.99 125.864 60.816 126.061 L 60.816 126.061 L 58.891 132.299 L 58.788 132.267 L 56.04 125.178 L 54.426 130.406 L 54.426 130.406 Q 54.459 130.667 55.078 130.859 L 55.078 130.859 L 55.004 131.099 L 55.004 131.099 Z  M 67.775 127.273 L 67.775 127.273 L 67.775 127.273 Q 66.748 127.171 65.913 128.059 L 65.913 128.059 L 65.913 128.059 Q 65.077 128.947 64.942 130.308 L 64.942 130.308 L 64.942 130.308 Q 64.86 131.132 65.012 131.786 L 65.012 131.786 L 65.012 131.786 Q 65.164 132.44 65.487 132.828 L 65.487 132.828 L 65.487 132.828 Q 65.81 133.216 66.188 133.422 L 66.188 133.422 L 66.188 133.422 Q 66.565 133.629 66.971 133.669 L 66.971 133.669 L 66.971 133.669 Q 67.64 133.735 68.26 133.568 L 68.26 133.568 L 68.503 131.12 L 68.503 131.12 Q 68.419 130.87 67.774 130.806 L 67.774 130.806 L 67.799 130.556 L 70.402 130.814 L 70.377 131.065 L 70.377 131.065 Q 69.733 131.001 69.601 131.229 L 69.601 131.229 L 69.402 133.235 L 69.402 133.235 Q 69.161 133.597 68.512 133.882 L 68.512 133.882 L 68.512 133.882 Q 67.863 134.168 66.907 134.073 L 66.907 134.073 L 66.907 134.073 Q 65.307 133.914 64.431 132.778 L 64.431 132.778 L 64.431 132.778 Q 63.555 131.642 63.697 130.209 L 63.697 130.209 L 63.697 130.209 Q 63.862 128.549 65.087 127.633 L 65.087 127.633 L 65.087 127.633 Q 66.311 126.718 67.804 126.866 L 67.804 126.866 L 67.804 126.866 Q 68.15 126.9 68.646 127.131 L 68.646 127.131 L 68.646 127.131 Q 69.141 127.361 69.213 127.368 L 69.213 127.368 L 69.213 127.368 Q 69.356 127.382 69.38 127.143 L 69.38 127.143 L 69.655 127.17 L 69.623 128.699 L 69.361 128.673 L 69.361 128.673 Q 69.341 128.14 68.923 127.743 L 68.923 127.743 L 68.923 127.743 Q 68.504 127.346 67.775 127.273 Z  M 79.901 134.422 L 77.274 134.463 L 77.27 134.211 L 77.27 134.211 Q 77.822 134.202 77.964 134.056 L 77.964 134.056 L 77.263 132.231 L 74.959 132.266 L 74.363 134.04 L 74.363 134.04 Q 74.486 134.254 75.11 134.244 L 75.11 134.244 L 75.114 134.496 L 73.146 134.527 L 73.142 134.275 L 73.142 134.275 Q 73.814 134.264 73.894 134.011 L 73.894 134.011 L 76.121 127.46 L 76.697 127.451 L 79.126 133.93 L 79.126 133.93 Q 79.214 134.181 79.898 134.17 L 79.898 134.17 L 79.901 134.422 L 79.901 134.422 Z  M 77.113 131.837 L 76.05 129.057 L 75.097 131.868 L 77.113 131.837 L 77.113 131.837 Z  M 15.15 79.045 L 14.96 77.134 L 15.21 77.109 L 15.21 77.109 Q 15.275 77.754 15.524 77.838 L 15.524 77.838 L 21.53 77.239 L 21.53 77.239 Q 21.758 77.107 21.694 76.463 L 21.694 76.463 L 21.945 76.438 L 22.105 78.038 L 17.615 82.477 L 22.009 82.039 L 22.009 82.039 Q 22.237 81.908 22.173 81.263 L 22.173 81.263 L 22.424 81.238 L 22.614 83.148 L 22.364 83.173 L 22.364 83.173 Q 22.299 82.528 22.05 82.445 L 22.05 82.445 L 15.554 83.093 L 15.543 82.985 L 21.01 77.701 L 15.565 78.244 L 15.565 78.244 Q 15.337 78.375 15.401 79.02 L 15.401 79.02 L 15.15 79.045 L 15.15 79.045 Z  M 18.091 93.586 L 17.316 91.075 L 17.557 91.001 L 17.557 91.001 Q 17.72 91.528 17.9 91.623 L 17.9 91.623 L 19.456 90.439 L 18.776 88.238 L 16.906 88.162 L 16.906 88.162 Q 16.735 88.341 16.919 88.937 L 16.919 88.937 L 16.679 89.011 L 16.098 87.131 L 16.339 87.056 L 16.339 87.056 Q 16.537 87.698 16.802 87.704 L 16.802 87.704 L 23.715 88.006 L 23.885 88.556 L 18.346 92.703 L 18.346 92.703 Q 18.13 92.858 18.332 93.512 L 18.332 93.512 L 18.091 93.586 L 18.091 93.586 Z  M 19.791 90.185 L 22.162 88.385 L 19.197 88.259 L 19.791 90.185 L 19.791 90.185 Z  M 19.98 98.55 L 19.202 96.795 L 19.433 96.692 L 19.433 96.692 Q 19.695 97.285 19.958 97.286 L 19.958 97.286 L 25.477 94.84 L 25.477 94.84 Q 25.652 94.644 25.39 94.052 L 25.39 94.052 L 25.62 93.95 L 26.33 95.551 L 22.264 100.149 L 28.402 100.225 L 29.121 101.848 L 28.891 101.951 L 28.891 101.951 Q 28.628 101.358 28.365 101.357 L 28.365 101.357 L 22.847 103.803 L 22.847 103.803 Q 22.671 103.999 22.934 104.591 L 22.934 104.591 L 22.704 104.693 L 21.643 102.302 L 21.874 102.2 L 21.874 102.2 Q 22.136 102.792 22.4 102.794 L 22.4 102.794 L 27.325 100.61 L 20.861 100.536 L 20.788 100.371 L 25.115 95.447 L 20.124 97.659 L 20.124 97.659 Q 19.948 97.855 20.211 98.448 L 20.211 98.448 L 19.98 98.55 L 19.98 98.55 Z  M 28.845 106.915 L 28.845 106.915 L 28.845 106.915 Q 28.189 107.358 27.711 107.948 L 27.711 107.948 L 27.711 107.948 Q 27.233 108.538 27.076 109.26 L 27.076 109.26 L 27.076 109.26 Q 26.918 109.981 27.314 110.568 L 27.314 110.568 L 27.314 110.568 Q 27.71 111.155 28.399 111.276 L 28.399 111.276 L 28.399 111.276 Q 29.089 111.397 29.762 111.182 L 29.762 111.182 L 29.762 111.182 Q 30.435 110.967 31.061 110.545 L 31.061 110.545 L 31.061 110.545 Q 31.708 110.109 32.192 109.507 L 32.192 109.507 L 32.192 109.507 Q 32.677 108.905 32.834 108.184 L 32.834 108.184 L 32.834 108.184 Q 32.992 107.463 32.603 106.886 L 32.603 106.886 L 32.603 106.886 Q 32.301 106.438 31.831 106.256 L 31.831 106.256 L 31.831 106.256 Q 31.36 106.073 30.837 106.144 L 30.837 106.144 L 30.837 106.144 Q 30.313 106.215 29.808 106.411 L 29.808 106.411 L 29.808 106.411 Q 29.303 106.607 28.845 106.915 Z  M 28.095 105.974 L 28.095 105.974 L 28.095 105.974 Q 29.339 105.136 30.747 105.314 L 30.747 105.314 L 30.747 105.314 Q 32.156 105.493 32.968 106.697 L 32.968 106.697 L 32.968 106.697 Q 33.78 107.901 33.418 109.274 L 33.418 109.274 L 33.418 109.274 Q 33.056 110.647 31.812 111.486 L 31.812 111.486 L 31.812 111.486 Q 30.568 112.325 29.161 112.137 L 29.161 112.137 L 29.161 112.137 Q 27.754 111.95 26.949 110.756 L 26.949 110.756 L 26.949 110.756 Q 26.13 109.543 26.486 108.181 L 26.486 108.181 L 26.486 108.181 Q 26.841 106.82 28.095 105.974 Z " fill="rgb(0,0,0)"/></g></g></svg>